<mxfile host="app.diagrams.net" modified="2023-09-18T01:30:24.527Z" agent="Mozilla/5.0 (Windows NT 10.0; Win64; x64; rv:109.0) Gecko/20100101 Firefox/117.0" etag="GOE3EAzhHxT4LlIQgQfy" version="21.7.5" type="device" pages="2">
  <diagram name="modelo_conceitual" id="dXBV7LfU1CwSF59GYVCx">
    <mxGraphModel dx="1434" dy="1943" grid="1" gridSize="10" guides="1" tooltips="1" connect="1" arrows="1" fold="1" page="1" pageScale="1" pageWidth="827" pageHeight="1169" math="0" shadow="0">
      <root>
        <mxCell id="0" />
        <mxCell id="1" parent="0" />
        <mxCell id="VryAPuEKhXuBB2nquGHK-21" style="edgeStyle=orthogonalEdgeStyle;shape=connector;rounded=0;orthogonalLoop=1;jettySize=auto;html=1;entryX=0;entryY=0.5;entryDx=0;entryDy=0;labelBackgroundColor=default;strokeColor=default;fontFamily=Helvetica;fontSize=11;fontColor=default;endArrow=none;endFill=0;" parent="1" source="VryAPuEKhXuBB2nquGHK-32" target="VryAPuEKhXuBB2nquGHK-3" edge="1">
          <mxGeometry relative="1" as="geometry">
            <mxPoint x="820" y="230" as="targetPoint" />
          </mxGeometry>
        </mxCell>
        <mxCell id="VryAPuEKhXuBB2nquGHK-1" value="TRABALHO" style="rounded=0;whiteSpace=wrap;html=1;" parent="1" vertex="1">
          <mxGeometry x="780" y="200" width="120" height="60" as="geometry" />
        </mxCell>
        <mxCell id="VryAPuEKhXuBB2nquGHK-3" value="ALUNO" style="rounded=0;whiteSpace=wrap;html=1;" parent="1" vertex="1">
          <mxGeometry x="1140" y="200" width="120" height="60" as="geometry" />
        </mxCell>
        <mxCell id="VryAPuEKhXuBB2nquGHK-26" style="edgeStyle=orthogonalEdgeStyle;shape=connector;rounded=0;orthogonalLoop=1;jettySize=auto;html=1;entryX=0.5;entryY=0;entryDx=0;entryDy=0;labelBackgroundColor=default;strokeColor=default;fontFamily=Helvetica;fontSize=11;fontColor=default;endArrow=none;endFill=0;" parent="1" source="VryAPuEKhXuBB2nquGHK-30" edge="1">
          <mxGeometry relative="1" as="geometry">
            <mxPoint x="880" y="200" as="targetPoint" />
          </mxGeometry>
        </mxCell>
        <mxCell id="gcTHAqOvHNP9olXAU4CA-4" style="edgeStyle=orthogonalEdgeStyle;rounded=0;orthogonalLoop=1;jettySize=auto;html=1;entryX=0.5;entryY=1;entryDx=0;entryDy=0;endArrow=none;endFill=0;" parent="1" source="VryAPuEKhXuBB2nquGHK-4" target="gcTHAqOvHNP9olXAU4CA-2" edge="1">
          <mxGeometry relative="1" as="geometry" />
        </mxCell>
        <mxCell id="VryAPuEKhXuBB2nquGHK-4" value="PROFESSOR" style="rounded=0;whiteSpace=wrap;html=1;" parent="1" vertex="1">
          <mxGeometry x="820" y="-320" width="120" height="60" as="geometry" />
        </mxCell>
        <mxCell id="VryAPuEKhXuBB2nquGHK-43" style="edgeStyle=orthogonalEdgeStyle;shape=connector;rounded=0;orthogonalLoop=1;jettySize=auto;html=1;entryX=0.25;entryY=0;entryDx=0;entryDy=0;labelBackgroundColor=default;strokeColor=default;fontFamily=Helvetica;fontSize=11;fontColor=default;endArrow=none;endFill=0;" parent="1" source="VryAPuEKhXuBB2nquGHK-44" target="VryAPuEKhXuBB2nquGHK-1" edge="1">
          <mxGeometry relative="1" as="geometry">
            <Array as="points">
              <mxPoint x="680" y="100" />
              <mxPoint x="810" y="100" />
            </Array>
          </mxGeometry>
        </mxCell>
        <mxCell id="XcfXm6WalEXo6TO5PLhB-7" style="edgeStyle=orthogonalEdgeStyle;rounded=0;orthogonalLoop=1;jettySize=auto;html=1;entryX=0;entryY=0.5;entryDx=0;entryDy=0;strokeWidth=1;endArrow=none;endFill=0;" parent="1" source="VryAPuEKhXuBB2nquGHK-5" target="XcfXm6WalEXo6TO5PLhB-2" edge="1">
          <mxGeometry relative="1" as="geometry" />
        </mxCell>
        <mxCell id="VryAPuEKhXuBB2nquGHK-5" value="BANCA" style="rounded=0;whiteSpace=wrap;html=1;" parent="1" vertex="1">
          <mxGeometry x="820" y="-110" width="120" height="60" as="geometry" />
        </mxCell>
        <mxCell id="VryAPuEKhXuBB2nquGHK-24" style="edgeStyle=orthogonalEdgeStyle;shape=connector;rounded=0;orthogonalLoop=1;jettySize=auto;html=1;entryX=0;entryY=0.5;entryDx=0;entryDy=0;labelBackgroundColor=default;strokeColor=default;fontFamily=Helvetica;fontSize=11;fontColor=default;endArrow=none;endFill=0;exitX=1;exitY=0;exitDx=0;exitDy=0;" parent="1" source="xQpX1O-wk2X8rewVjLS0-5" target="VryAPuEKhXuBB2nquGHK-1" edge="1">
          <mxGeometry relative="1" as="geometry">
            <mxPoint x="150" y="-10" as="sourcePoint" />
            <mxPoint x="460" y="210" as="targetPoint" />
            <Array as="points">
              <mxPoint x="460" y="230" />
            </Array>
          </mxGeometry>
        </mxCell>
        <mxCell id="VryAPuEKhXuBB2nquGHK-6" value="AVALIACAO" style="rounded=0;whiteSpace=wrap;html=1;" parent="1" vertex="1">
          <mxGeometry x="430" y="-320" width="120" height="60" as="geometry" />
        </mxCell>
        <mxCell id="VryAPuEKhXuBB2nquGHK-27" value="" style="edgeStyle=orthogonalEdgeStyle;shape=connector;rounded=0;orthogonalLoop=1;jettySize=auto;html=1;entryX=0;entryY=0.5;entryDx=0;entryDy=0;labelBackgroundColor=default;strokeColor=default;fontFamily=Helvetica;fontSize=11;fontColor=default;endArrow=none;endFill=0;" parent="1" source="VryAPuEKhXuBB2nquGHK-6" target="VryAPuEKhXuBB2nquGHK-19" edge="1">
          <mxGeometry relative="1" as="geometry">
            <mxPoint x="550" y="-290" as="sourcePoint" />
            <mxPoint x="790" y="-290" as="targetPoint" />
          </mxGeometry>
        </mxCell>
        <mxCell id="AKIAGgmioR0Wmz8k8eDt-1" style="edgeStyle=orthogonalEdgeStyle;rounded=0;orthogonalLoop=1;jettySize=auto;html=1;entryX=0;entryY=0.5;entryDx=0;entryDy=0;endArrow=none;endFill=0;" parent="1" source="VryAPuEKhXuBB2nquGHK-19" target="VryAPuEKhXuBB2nquGHK-4" edge="1">
          <mxGeometry relative="1" as="geometry" />
        </mxCell>
        <mxCell id="VryAPuEKhXuBB2nquGHK-19" value="realiza" style="rhombus;whiteSpace=wrap;html=1;" parent="1" vertex="1">
          <mxGeometry x="640" y="-310" width="80" height="40" as="geometry" />
        </mxCell>
        <mxCell id="VryAPuEKhXuBB2nquGHK-31" value="" style="edgeStyle=orthogonalEdgeStyle;shape=connector;rounded=0;orthogonalLoop=1;jettySize=auto;html=1;entryX=1;entryY=0.5;entryDx=0;entryDy=0;labelBackgroundColor=default;strokeColor=default;fontFamily=Helvetica;fontSize=11;fontColor=default;endArrow=none;endFill=0;exitX=0.5;exitY=1;exitDx=0;exitDy=0;" parent="1" source="AKIAGgmioR0Wmz8k8eDt-5" target="VryAPuEKhXuBB2nquGHK-30" edge="1">
          <mxGeometry relative="1" as="geometry">
            <mxPoint x="1070" y="-110" as="sourcePoint" />
            <mxPoint x="850" y="230" as="targetPoint" />
            <Array as="points">
              <mxPoint x="1533" y="100" />
            </Array>
          </mxGeometry>
        </mxCell>
        <mxCell id="VryAPuEKhXuBB2nquGHK-30" value="orienta" style="rhombus;whiteSpace=wrap;html=1;" parent="1" vertex="1">
          <mxGeometry x="840" y="80" width="80" height="40" as="geometry" />
        </mxCell>
        <mxCell id="VryAPuEKhXuBB2nquGHK-33" value="" style="edgeStyle=orthogonalEdgeStyle;shape=connector;rounded=0;orthogonalLoop=1;jettySize=auto;html=1;entryX=0;entryY=0.5;entryDx=0;entryDy=0;labelBackgroundColor=default;strokeColor=default;fontFamily=Helvetica;fontSize=11;fontColor=default;endArrow=none;endFill=0;" parent="1" source="VryAPuEKhXuBB2nquGHK-1" target="VryAPuEKhXuBB2nquGHK-32" edge="1">
          <mxGeometry relative="1" as="geometry">
            <mxPoint x="900" y="230" as="sourcePoint" />
            <mxPoint x="1140" y="230" as="targetPoint" />
          </mxGeometry>
        </mxCell>
        <mxCell id="VryAPuEKhXuBB2nquGHK-32" value="possui" style="rhombus;whiteSpace=wrap;html=1;" parent="1" vertex="1">
          <mxGeometry x="990" y="210" width="80" height="40" as="geometry" />
        </mxCell>
        <mxCell id="VryAPuEKhXuBB2nquGHK-35" value="" style="edgeStyle=orthogonalEdgeStyle;shape=connector;rounded=0;orthogonalLoop=1;jettySize=auto;html=1;entryX=0.5;entryY=0;entryDx=0;entryDy=0;labelBackgroundColor=default;strokeColor=default;fontFamily=Helvetica;fontSize=11;fontColor=default;endArrow=none;endFill=0;exitX=0.25;exitY=1;exitDx=0;exitDy=0;" parent="1" source="VryAPuEKhXuBB2nquGHK-6" target="VryAPuEKhXuBB2nquGHK-34" edge="1">
          <mxGeometry relative="1" as="geometry">
            <mxPoint x="490" y="-20" as="sourcePoint" />
            <mxPoint x="490" y="170" as="targetPoint" />
          </mxGeometry>
        </mxCell>
        <mxCell id="VryAPuEKhXuBB2nquGHK-34" value="possui" style="rhombus;whiteSpace=wrap;html=1;" parent="1" vertex="1">
          <mxGeometry x="420" y="-100" width="80" height="40" as="geometry" />
        </mxCell>
        <mxCell id="xQpX1O-wk2X8rewVjLS0-1" style="edgeStyle=orthogonalEdgeStyle;rounded=0;orthogonalLoop=1;jettySize=auto;html=1;exitX=0.5;exitY=1;exitDx=0;exitDy=0;entryX=0.5;entryY=0;entryDx=0;entryDy=0;endArrow=none;endFill=0;" parent="1" source="VryAPuEKhXuBB2nquGHK-41" target="VryAPuEKhXuBB2nquGHK-5" edge="1">
          <mxGeometry relative="1" as="geometry" />
        </mxCell>
        <mxCell id="y0ox88dJmqK1fQtms9q_-2" style="edgeStyle=orthogonalEdgeStyle;rounded=0;orthogonalLoop=1;jettySize=auto;html=1;entryX=0.5;entryY=1;entryDx=0;entryDy=0;endArrow=none;endFill=0;" parent="1" source="VryAPuEKhXuBB2nquGHK-41" target="VryAPuEKhXuBB2nquGHK-4" edge="1">
          <mxGeometry relative="1" as="geometry">
            <mxPoint x="680" y="-150" as="targetPoint" />
          </mxGeometry>
        </mxCell>
        <mxCell id="VryAPuEKhXuBB2nquGHK-41" value="compÃµe" style="rhombus;whiteSpace=wrap;html=1;" parent="1" vertex="1">
          <mxGeometry x="840" y="-210" width="80" height="40" as="geometry" />
        </mxCell>
        <mxCell id="AKIAGgmioR0Wmz8k8eDt-3" style="edgeStyle=orthogonalEdgeStyle;rounded=0;orthogonalLoop=1;jettySize=auto;html=1;entryX=0;entryY=0.5;entryDx=0;entryDy=0;endArrow=none;endFill=0;" parent="1" source="VryAPuEKhXuBB2nquGHK-44" target="VryAPuEKhXuBB2nquGHK-5" edge="1">
          <mxGeometry relative="1" as="geometry" />
        </mxCell>
        <mxCell id="VryAPuEKhXuBB2nquGHK-44" value="possui" style="rhombus;whiteSpace=wrap;html=1;" parent="1" vertex="1">
          <mxGeometry x="640" y="-100" width="80" height="40" as="geometry" />
        </mxCell>
        <mxCell id="xQpX1O-wk2X8rewVjLS0-2" value="N" style="text;html=1;strokeColor=none;fillColor=none;align=center;verticalAlign=middle;whiteSpace=wrap;rounded=0;" parent="1" vertex="1">
          <mxGeometry x="610" y="-320" width="60" height="30" as="geometry" />
        </mxCell>
        <mxCell id="xQpX1O-wk2X8rewVjLS0-3" value="1" style="text;html=1;strokeColor=none;fillColor=none;align=center;verticalAlign=middle;whiteSpace=wrap;rounded=0;" parent="1" vertex="1">
          <mxGeometry x="690" y="-320" width="60" height="30" as="geometry" />
        </mxCell>
        <mxCell id="xQpX1O-wk2X8rewVjLS0-4" value="N" style="text;html=1;strokeColor=none;fillColor=none;align=center;verticalAlign=middle;whiteSpace=wrap;rounded=0;" parent="1" vertex="1">
          <mxGeometry x="400" y="-130" width="60" height="30" as="geometry" />
        </mxCell>
        <mxCell id="xQpX1O-wk2X8rewVjLS0-5" value="1" style="text;html=1;strokeColor=none;fillColor=none;align=center;verticalAlign=middle;whiteSpace=wrap;rounded=0;" parent="1" vertex="1">
          <mxGeometry x="400" y="-60" width="60" height="30" as="geometry" />
        </mxCell>
        <mxCell id="xQpX1O-wk2X8rewVjLS0-6" value="N" style="text;html=1;strokeColor=none;fillColor=none;align=center;verticalAlign=middle;whiteSpace=wrap;rounded=0;" parent="1" vertex="1">
          <mxGeometry x="820" y="-240" width="60" height="30" as="geometry" />
        </mxCell>
        <mxCell id="xQpX1O-wk2X8rewVjLS0-7" value="N" style="text;html=1;strokeColor=none;fillColor=none;align=center;verticalAlign=middle;whiteSpace=wrap;rounded=0;" parent="1" vertex="1">
          <mxGeometry x="820" y="-170" width="60" height="30" as="geometry" />
        </mxCell>
        <mxCell id="xQpX1O-wk2X8rewVjLS0-8" value="1" style="text;html=1;strokeColor=none;fillColor=none;align=center;verticalAlign=middle;whiteSpace=wrap;rounded=0;" parent="1" vertex="1">
          <mxGeometry x="630" y="-60" width="60" height="30" as="geometry" />
        </mxCell>
        <mxCell id="xQpX1O-wk2X8rewVjLS0-9" value="1" style="text;html=1;strokeColor=none;fillColor=none;align=center;verticalAlign=middle;whiteSpace=wrap;rounded=0;" parent="1" vertex="1">
          <mxGeometry x="690" y="-115" width="60" height="30" as="geometry" />
        </mxCell>
        <mxCell id="xQpX1O-wk2X8rewVjLS0-10" value="N" style="text;html=1;strokeColor=none;fillColor=none;align=center;verticalAlign=middle;whiteSpace=wrap;rounded=0;" parent="1" vertex="1">
          <mxGeometry x="860" y="120" width="60" height="30" as="geometry" />
        </mxCell>
        <mxCell id="xQpX1O-wk2X8rewVjLS0-11" value="N" style="text;html=1;strokeColor=none;fillColor=none;align=center;verticalAlign=middle;whiteSpace=wrap;rounded=0;" parent="1" vertex="1">
          <mxGeometry x="890" y="100" width="60" height="30" as="geometry" />
        </mxCell>
        <mxCell id="ipfqILDfB-mwOmLKg-m2-5" value="&lt;div&gt;convidado&lt;br&gt;&lt;/div&gt;" style="rounded=0;whiteSpace=wrap;html=1;" parent="1" vertex="1">
          <mxGeometry x="1330" y="-110" width="120" height="60" as="geometry" />
        </mxCell>
        <mxCell id="o5kb52QhOw1-ioOknhIQ-1" value="N" style="text;html=1;strokeColor=none;fillColor=none;align=center;verticalAlign=middle;whiteSpace=wrap;rounded=0;" parent="1" vertex="1">
          <mxGeometry x="1050" y="200" width="60" height="30" as="geometry" />
        </mxCell>
        <mxCell id="o5kb52QhOw1-ioOknhIQ-2" value="N" style="text;html=1;strokeColor=none;fillColor=none;align=center;verticalAlign=middle;whiteSpace=wrap;rounded=0;" parent="1" vertex="1">
          <mxGeometry x="950" y="200" width="60" height="30" as="geometry" />
        </mxCell>
        <mxCell id="CTTvXBN9iiYeg6TADpl7-6" style="edgeStyle=orthogonalEdgeStyle;rounded=0;orthogonalLoop=1;jettySize=auto;html=1;entryX=1;entryY=0.5;entryDx=0;entryDy=0;endArrow=none;endFill=0;exitX=0.5;exitY=0;exitDx=0;exitDy=0;exitPerimeter=0;" parent="1" source="QHTF1BhRkL0xPhspEQkQ-1" target="VryAPuEKhXuBB2nquGHK-4" edge="1">
          <mxGeometry relative="1" as="geometry">
            <Array as="points">
              <mxPoint x="1533" y="-290" />
            </Array>
          </mxGeometry>
        </mxCell>
        <mxCell id="QHTF1BhRkL0xPhspEQkQ-1" value="" style="strokeWidth=2;html=1;shape=mxgraph.flowchart.extract_or_measurement;whiteSpace=wrap;" parent="1" vertex="1">
          <mxGeometry x="1510" y="-195" width="45" height="20" as="geometry" />
        </mxCell>
        <mxCell id="CTTvXBN9iiYeg6TADpl7-7" style="edgeStyle=orthogonalEdgeStyle;rounded=0;orthogonalLoop=1;jettySize=auto;html=1;entryX=0.5;entryY=1;entryDx=0;entryDy=0;entryPerimeter=0;endArrow=none;endFill=0;" parent="1" source="AKIAGgmioR0Wmz8k8eDt-5" target="QHTF1BhRkL0xPhspEQkQ-1" edge="1">
          <mxGeometry relative="1" as="geometry" />
        </mxCell>
        <mxCell id="AKIAGgmioR0Wmz8k8eDt-5" value="&lt;div&gt;orientador&lt;br&gt;&lt;/div&gt;" style="rounded=0;whiteSpace=wrap;html=1;" parent="1" vertex="1">
          <mxGeometry x="1472.5" y="-110" width="120" height="60" as="geometry" />
        </mxCell>
        <mxCell id="AKIAGgmioR0Wmz8k8eDt-6" value="&lt;div&gt;auxiliar de coordenaÃ§Ã£o&lt;br&gt;&lt;/div&gt;" style="rounded=0;whiteSpace=wrap;html=1;" parent="1" vertex="1">
          <mxGeometry x="1620" y="-110" width="120" height="60" as="geometry" />
        </mxCell>
        <mxCell id="AKIAGgmioR0Wmz8k8eDt-7" value="" style="endArrow=none;html=1;rounded=0;entryX=0.01;entryY=0.97;entryDx=0;entryDy=0;entryPerimeter=0;exitX=0.5;exitY=0;exitDx=0;exitDy=0;" parent="1" source="ipfqILDfB-mwOmLKg-m2-5" target="QHTF1BhRkL0xPhspEQkQ-1" edge="1">
          <mxGeometry width="50" height="50" relative="1" as="geometry">
            <mxPoint x="1420" y="-95" as="sourcePoint" />
            <mxPoint x="1470" y="-145" as="targetPoint" />
          </mxGeometry>
        </mxCell>
        <mxCell id="AKIAGgmioR0Wmz8k8eDt-9" value="" style="endArrow=none;html=1;rounded=0;entryX=0.99;entryY=0.97;entryDx=0;entryDy=0;entryPerimeter=0;exitX=0.5;exitY=0;exitDx=0;exitDy=0;" parent="1" source="AKIAGgmioR0Wmz8k8eDt-6" target="QHTF1BhRkL0xPhspEQkQ-1" edge="1">
          <mxGeometry width="50" height="50" relative="1" as="geometry">
            <mxPoint x="1720" y="-155" as="sourcePoint" />
            <mxPoint x="1720" y="-245" as="targetPoint" />
          </mxGeometry>
        </mxCell>
        <mxCell id="AKIAGgmioR0Wmz8k8eDt-11" value="C" style="text;html=1;strokeColor=none;fillColor=none;align=center;verticalAlign=middle;whiteSpace=wrap;rounded=0;" parent="1" vertex="1">
          <mxGeometry x="1541" y="-196" width="60" height="30" as="geometry" />
        </mxCell>
        <mxCell id="XcfXm6WalEXo6TO5PLhB-1" value="CERTIFICADO" style="rounded=0;whiteSpace=wrap;html=1;" parent="1" vertex="1">
          <mxGeometry x="1110" y="-110" width="120" height="60" as="geometry" />
        </mxCell>
        <mxCell id="XcfXm6WalEXo6TO5PLhB-8" style="edgeStyle=orthogonalEdgeStyle;rounded=0;orthogonalLoop=1;jettySize=auto;html=1;entryX=0;entryY=0.5;entryDx=0;entryDy=0;endArrow=none;endFill=0;" parent="1" source="XcfXm6WalEXo6TO5PLhB-2" target="XcfXm6WalEXo6TO5PLhB-1" edge="1">
          <mxGeometry relative="1" as="geometry" />
        </mxCell>
        <mxCell id="XcfXm6WalEXo6TO5PLhB-2" value="gera" style="rhombus;whiteSpace=wrap;html=1;" parent="1" vertex="1">
          <mxGeometry x="990" y="-100" width="80" height="40" as="geometry" />
        </mxCell>
        <mxCell id="XcfXm6WalEXo6TO5PLhB-5" value="1" style="text;html=1;strokeColor=none;fillColor=none;align=center;verticalAlign=middle;whiteSpace=wrap;rounded=0;" parent="1" vertex="1">
          <mxGeometry x="1060" y="-110" width="60" height="30" as="geometry" />
        </mxCell>
        <mxCell id="XcfXm6WalEXo6TO5PLhB-6" value="1" style="text;html=1;strokeColor=none;fillColor=none;align=center;verticalAlign=middle;whiteSpace=wrap;rounded=0;" parent="1" vertex="1">
          <mxGeometry x="930" y="-110" width="60" height="30" as="geometry" />
        </mxCell>
        <mxCell id="jpgni9hkz-zFZeuv8nXI-2" style="edgeStyle=orthogonalEdgeStyle;rounded=0;orthogonalLoop=1;jettySize=auto;html=1;entryX=0;entryY=0.5;entryDx=0;entryDy=0;endArrow=none;endFill=0;" parent="1" source="gcTHAqOvHNP9olXAU4CA-1" target="jpgni9hkz-zFZeuv8nXI-1" edge="1">
          <mxGeometry relative="1" as="geometry" />
        </mxCell>
        <mxCell id="gcTHAqOvHNP9olXAU4CA-1" value="DIA-AULA" style="rounded=0;whiteSpace=wrap;html=1;" parent="1" vertex="1">
          <mxGeometry x="820" y="-510" width="120" height="60" as="geometry" />
        </mxCell>
        <mxCell id="gcTHAqOvHNP9olXAU4CA-3" style="edgeStyle=orthogonalEdgeStyle;rounded=0;orthogonalLoop=1;jettySize=auto;html=1;entryX=0.5;entryY=1;entryDx=0;entryDy=0;endArrow=none;endFill=0;" parent="1" source="gcTHAqOvHNP9olXAU4CA-2" target="gcTHAqOvHNP9olXAU4CA-1" edge="1">
          <mxGeometry relative="1" as="geometry" />
        </mxCell>
        <mxCell id="gcTHAqOvHNP9olXAU4CA-2" value="possui" style="rhombus;whiteSpace=wrap;html=1;" parent="1" vertex="1">
          <mxGeometry x="840" y="-400" width="80" height="40" as="geometry" />
        </mxCell>
        <mxCell id="gcTHAqOvHNP9olXAU4CA-5" value="N" style="text;html=1;strokeColor=none;fillColor=none;align=center;verticalAlign=middle;whiteSpace=wrap;rounded=0;" parent="1" vertex="1">
          <mxGeometry x="880" y="-430" width="60" height="30" as="geometry" />
        </mxCell>
        <mxCell id="gcTHAqOvHNP9olXAU4CA-6" value="1" style="text;html=1;strokeColor=none;fillColor=none;align=center;verticalAlign=middle;whiteSpace=wrap;rounded=0;" parent="1" vertex="1">
          <mxGeometry x="880" y="-350" width="60" height="30" as="geometry" />
        </mxCell>
        <mxCell id="etJe3rPbqjTSPkrcvYCk-1" value="HORARIO-AULA" style="rounded=0;whiteSpace=wrap;html=1;" parent="1" vertex="1">
          <mxGeometry x="1130" y="-510" width="120" height="60" as="geometry" />
        </mxCell>
        <mxCell id="jpgni9hkz-zFZeuv8nXI-3" style="edgeStyle=orthogonalEdgeStyle;rounded=0;orthogonalLoop=1;jettySize=auto;html=1;entryX=0;entryY=0.5;entryDx=0;entryDy=0;endArrow=none;endFill=0;" parent="1" source="jpgni9hkz-zFZeuv8nXI-1" target="etJe3rPbqjTSPkrcvYCk-1" edge="1">
          <mxGeometry relative="1" as="geometry" />
        </mxCell>
        <mxCell id="jpgni9hkz-zFZeuv8nXI-1" value="possui" style="rhombus;whiteSpace=wrap;html=1;" parent="1" vertex="1">
          <mxGeometry x="1000" y="-500" width="80" height="40" as="geometry" />
        </mxCell>
        <mxCell id="jpgni9hkz-zFZeuv8nXI-4" value="N" style="text;html=1;strokeColor=none;fillColor=none;align=center;verticalAlign=middle;whiteSpace=wrap;rounded=0;" parent="1" vertex="1">
          <mxGeometry x="1070" y="-480" width="60" height="30" as="geometry" />
        </mxCell>
        <mxCell id="jpgni9hkz-zFZeuv8nXI-5" value="1" style="text;html=1;strokeColor=none;fillColor=none;align=center;verticalAlign=middle;whiteSpace=wrap;rounded=0;" parent="1" vertex="1">
          <mxGeometry x="940" y="-480" width="60" height="30" as="geometry" />
        </mxCell>
      </root>
    </mxGraphModel>
  </diagram>
  <diagram id="RtW0ooohNXftGfpfP9_e" name="modelo_logico">
    <mxGraphModel dx="3217" dy="2459" grid="1" gridSize="10" guides="1" tooltips="1" connect="1" arrows="1" fold="1" page="1" pageScale="1" pageWidth="827" pageHeight="1169" math="0" shadow="0">
      <root>
        <mxCell id="0" />
        <mxCell id="1" parent="0" />
        <mxCell id="4slNiZzoAtyGW7wbK6N_-57" value="PROFESSOR" style="shape=table;startSize=30;container=1;collapsible=1;childLayout=tableLayout;fixedRows=1;rowLines=0;fontStyle=1;align=center;resizeLast=1;html=1;whiteSpace=wrap;fillColor=#d5e8d4;strokeColor=#82b366;" parent="1" vertex="1">
          <mxGeometry x="329" y="-20" width="180.00000000000023" height="240" as="geometry">
            <mxRectangle x="320" y="330" width="80" height="30" as="alternateBounds" />
          </mxGeometry>
        </mxCell>
        <mxCell id="kmYilYqnJgTo9celBA7s-82" value="" style="shape=tableRow;horizontal=0;startSize=0;swimlaneHead=0;swimlaneBody=0;fillColor=none;collapsible=0;dropTarget=0;points=[[0,0.5],[1,0.5]];portConstraint=eastwest;top=0;left=0;right=0;bottom=0;html=1;" parent="4slNiZzoAtyGW7wbK6N_-57" vertex="1">
          <mxGeometry y="30" width="180.00000000000023" height="30" as="geometry" />
        </mxCell>
        <mxCell id="kmYilYqnJgTo9celBA7s-83" value="PK" style="shape=partialRectangle;connectable=0;fillColor=none;top=0;left=0;bottom=0;right=0;editable=1;overflow=hidden;html=1;whiteSpace=wrap;" parent="kmYilYqnJgTo9celBA7s-82" vertex="1">
          <mxGeometry width="60" height="30" as="geometry">
            <mxRectangle width="60" height="30" as="alternateBounds" />
          </mxGeometry>
        </mxCell>
        <mxCell id="kmYilYqnJgTo9celBA7s-84" value="id_professor" style="shape=partialRectangle;connectable=0;fillColor=none;top=0;left=0;bottom=0;right=0;align=left;spacingLeft=6;overflow=hidden;html=1;whiteSpace=wrap;" parent="kmYilYqnJgTo9celBA7s-82" vertex="1">
          <mxGeometry x="60" width="120.00000000000023" height="30" as="geometry">
            <mxRectangle width="120.00000000000023" height="30" as="alternateBounds" />
          </mxGeometry>
        </mxCell>
        <mxCell id="DAVtMT2fN0Toa0u_V9ZZ-78" value="" style="shape=tableRow;horizontal=0;startSize=0;swimlaneHead=0;swimlaneBody=0;fillColor=none;collapsible=0;dropTarget=0;points=[[0,0.5],[1,0.5]];portConstraint=eastwest;top=0;left=0;right=0;bottom=0;html=1;" parent="4slNiZzoAtyGW7wbK6N_-57" vertex="1">
          <mxGeometry y="60" width="180.00000000000023" height="30" as="geometry" />
        </mxCell>
        <mxCell id="DAVtMT2fN0Toa0u_V9ZZ-79" value="" style="shape=partialRectangle;connectable=0;fillColor=none;top=0;left=0;bottom=0;right=0;editable=1;overflow=hidden;html=1;whiteSpace=wrap;" parent="DAVtMT2fN0Toa0u_V9ZZ-78" vertex="1">
          <mxGeometry width="60" height="30" as="geometry">
            <mxRectangle width="60" height="30" as="alternateBounds" />
          </mxGeometry>
        </mxCell>
        <mxCell id="DAVtMT2fN0Toa0u_V9ZZ-80" value="user_id" style="shape=partialRectangle;connectable=0;fillColor=none;top=0;left=0;bottom=0;right=0;align=left;spacingLeft=6;overflow=hidden;html=1;whiteSpace=wrap;" parent="DAVtMT2fN0Toa0u_V9ZZ-78" vertex="1">
          <mxGeometry x="60" width="120.00000000000023" height="30" as="geometry">
            <mxRectangle width="120.00000000000023" height="30" as="alternateBounds" />
          </mxGeometry>
        </mxCell>
        <mxCell id="4slNiZzoAtyGW7wbK6N_-64" value="" style="shape=tableRow;horizontal=0;startSize=0;swimlaneHead=0;swimlaneBody=0;fillColor=none;collapsible=0;dropTarget=0;points=[[0,0.5],[1,0.5]];portConstraint=eastwest;top=0;left=0;right=0;bottom=0;html=1;" parent="4slNiZzoAtyGW7wbK6N_-57" vertex="1">
          <mxGeometry y="90" width="180.00000000000023" height="30" as="geometry" />
        </mxCell>
        <mxCell id="4slNiZzoAtyGW7wbK6N_-65" value="" style="shape=partialRectangle;connectable=0;fillColor=none;top=0;left=0;bottom=0;right=0;editable=1;overflow=hidden;html=1;whiteSpace=wrap;" parent="4slNiZzoAtyGW7wbK6N_-64" vertex="1">
          <mxGeometry width="60" height="30" as="geometry">
            <mxRectangle width="60" height="30" as="alternateBounds" />
          </mxGeometry>
        </mxCell>
        <mxCell id="4slNiZzoAtyGW7wbK6N_-66" value="nome" style="shape=partialRectangle;connectable=0;fillColor=none;top=0;left=0;bottom=0;right=0;align=left;spacingLeft=6;overflow=hidden;html=1;whiteSpace=wrap;" parent="4slNiZzoAtyGW7wbK6N_-64" vertex="1">
          <mxGeometry x="60" width="120.00000000000023" height="30" as="geometry">
            <mxRectangle width="120.00000000000023" height="30" as="alternateBounds" />
          </mxGeometry>
        </mxCell>
        <mxCell id="4slNiZzoAtyGW7wbK6N_-67" value="" style="shape=tableRow;horizontal=0;startSize=0;swimlaneHead=0;swimlaneBody=0;fillColor=none;collapsible=0;dropTarget=0;points=[[0,0.5],[1,0.5]];portConstraint=eastwest;top=0;left=0;right=0;bottom=0;html=1;" parent="4slNiZzoAtyGW7wbK6N_-57" vertex="1">
          <mxGeometry y="120" width="180.00000000000023" height="30" as="geometry" />
        </mxCell>
        <mxCell id="4slNiZzoAtyGW7wbK6N_-68" value="" style="shape=partialRectangle;connectable=0;fillColor=none;top=0;left=0;bottom=0;right=0;editable=1;overflow=hidden;html=1;whiteSpace=wrap;" parent="4slNiZzoAtyGW7wbK6N_-67" vertex="1">
          <mxGeometry width="60" height="30" as="geometry">
            <mxRectangle width="60" height="30" as="alternateBounds" />
          </mxGeometry>
        </mxCell>
        <mxCell id="4slNiZzoAtyGW7wbK6N_-69" value="e-mail" style="shape=partialRectangle;connectable=0;fillColor=none;top=0;left=0;bottom=0;right=0;align=left;spacingLeft=6;overflow=hidden;html=1;whiteSpace=wrap;" parent="4slNiZzoAtyGW7wbK6N_-67" vertex="1">
          <mxGeometry x="60" width="120.00000000000023" height="30" as="geometry">
            <mxRectangle width="120.00000000000023" height="30" as="alternateBounds" />
          </mxGeometry>
        </mxCell>
        <mxCell id="DAVtMT2fN0Toa0u_V9ZZ-75" value="" style="shape=tableRow;horizontal=0;startSize=0;swimlaneHead=0;swimlaneBody=0;fillColor=none;collapsible=0;dropTarget=0;points=[[0,0.5],[1,0.5]];portConstraint=eastwest;top=0;left=0;right=0;bottom=0;html=1;" parent="4slNiZzoAtyGW7wbK6N_-57" vertex="1">
          <mxGeometry y="150" width="180.00000000000023" height="30" as="geometry" />
        </mxCell>
        <mxCell id="DAVtMT2fN0Toa0u_V9ZZ-76" value="" style="shape=partialRectangle;connectable=0;fillColor=none;top=0;left=0;bottom=0;right=0;editable=1;overflow=hidden;html=1;whiteSpace=wrap;" parent="DAVtMT2fN0Toa0u_V9ZZ-75" vertex="1">
          <mxGeometry width="60" height="30" as="geometry">
            <mxRectangle width="60" height="30" as="alternateBounds" />
          </mxGeometry>
        </mxCell>
        <mxCell id="DAVtMT2fN0Toa0u_V9ZZ-77" value="email_inst_verif" style="shape=partialRectangle;connectable=0;fillColor=none;top=0;left=0;bottom=0;right=0;align=left;spacingLeft=6;overflow=hidden;html=1;whiteSpace=wrap;" parent="DAVtMT2fN0Toa0u_V9ZZ-75" vertex="1">
          <mxGeometry x="60" width="120.00000000000023" height="30" as="geometry">
            <mxRectangle width="120.00000000000023" height="30" as="alternateBounds" />
          </mxGeometry>
        </mxCell>
        <mxCell id="DAVtMT2fN0Toa0u_V9ZZ-59" value="" style="shape=tableRow;horizontal=0;startSize=0;swimlaneHead=0;swimlaneBody=0;fillColor=none;collapsible=0;dropTarget=0;points=[[0,0.5],[1,0.5]];portConstraint=eastwest;top=0;left=0;right=0;bottom=0;html=1;" parent="4slNiZzoAtyGW7wbK6N_-57" vertex="1">
          <mxGeometry y="180" width="180.00000000000023" height="30" as="geometry" />
        </mxCell>
        <mxCell id="DAVtMT2fN0Toa0u_V9ZZ-60" value="" style="shape=partialRectangle;connectable=0;fillColor=none;top=0;left=0;bottom=0;right=0;editable=1;overflow=hidden;html=1;whiteSpace=wrap;" parent="DAVtMT2fN0Toa0u_V9ZZ-59" vertex="1">
          <mxGeometry width="60" height="30" as="geometry">
            <mxRectangle width="60" height="30" as="alternateBounds" />
          </mxGeometry>
        </mxCell>
        <mxCell id="DAVtMT2fN0Toa0u_V9ZZ-61" value="coordenador" style="shape=partialRectangle;connectable=0;fillColor=none;top=0;left=0;bottom=0;right=0;align=left;spacingLeft=6;overflow=hidden;html=1;whiteSpace=wrap;" parent="DAVtMT2fN0Toa0u_V9ZZ-59" vertex="1">
          <mxGeometry x="60" width="120.00000000000023" height="30" as="geometry">
            <mxRectangle width="120.00000000000023" height="30" as="alternateBounds" />
          </mxGeometry>
        </mxCell>
        <mxCell id="DAVtMT2fN0Toa0u_V9ZZ-81" value="" style="shape=tableRow;horizontal=0;startSize=0;swimlaneHead=0;swimlaneBody=0;fillColor=none;collapsible=0;dropTarget=0;points=[[0,0.5],[1,0.5]];portConstraint=eastwest;top=0;left=0;right=0;bottom=0;html=1;" parent="4slNiZzoAtyGW7wbK6N_-57" vertex="1">
          <mxGeometry y="210" width="180.00000000000023" height="30" as="geometry" />
        </mxCell>
        <mxCell id="DAVtMT2fN0Toa0u_V9ZZ-82" value="" style="shape=partialRectangle;connectable=0;fillColor=none;top=0;left=0;bottom=0;right=0;editable=1;overflow=hidden;html=1;whiteSpace=wrap;" parent="DAVtMT2fN0Toa0u_V9ZZ-81" vertex="1">
          <mxGeometry width="60" height="30" as="geometry">
            <mxRectangle width="60" height="30" as="alternateBounds" />
          </mxGeometry>
        </mxCell>
        <mxCell id="DAVtMT2fN0Toa0u_V9ZZ-83" value="codigo" style="shape=partialRectangle;connectable=0;fillColor=none;top=0;left=0;bottom=0;right=0;align=left;spacingLeft=6;overflow=hidden;html=1;whiteSpace=wrap;" parent="DAVtMT2fN0Toa0u_V9ZZ-81" vertex="1">
          <mxGeometry x="60" width="120.00000000000023" height="30" as="geometry">
            <mxRectangle width="120.00000000000023" height="30" as="alternateBounds" />
          </mxGeometry>
        </mxCell>
        <mxCell id="1YhN6j1r-1prUdyuXXBl-1" value="TEMA" style="shape=table;startSize=30;container=1;collapsible=1;childLayout=tableLayout;fixedRows=1;rowLines=0;fontStyle=1;align=center;resizeLast=1;html=1;whiteSpace=wrap;fillColor=#ffe6cc;strokeColor=#d79b00;" parent="1" vertex="1">
          <mxGeometry x="60" y="180" width="180" height="180" as="geometry" />
        </mxCell>
        <mxCell id="1YhN6j1r-1prUdyuXXBl-8" value="" style="shape=tableRow;horizontal=0;startSize=0;swimlaneHead=0;swimlaneBody=0;fillColor=none;collapsible=0;dropTarget=0;points=[[0,0.5],[1,0.5]];portConstraint=eastwest;top=0;left=0;right=0;bottom=0;html=1;" parent="1YhN6j1r-1prUdyuXXBl-1" vertex="1">
          <mxGeometry y="30" width="180" height="30" as="geometry" />
        </mxCell>
        <mxCell id="1YhN6j1r-1prUdyuXXBl-9" value="PK" style="shape=partialRectangle;connectable=0;fillColor=none;top=0;left=0;bottom=0;right=0;editable=1;overflow=hidden;html=1;whiteSpace=wrap;" parent="1YhN6j1r-1prUdyuXXBl-8" vertex="1">
          <mxGeometry width="60" height="30" as="geometry">
            <mxRectangle width="60" height="30" as="alternateBounds" />
          </mxGeometry>
        </mxCell>
        <mxCell id="1YhN6j1r-1prUdyuXXBl-10" value="id_tema" style="shape=partialRectangle;connectable=0;fillColor=none;top=0;left=0;bottom=0;right=0;align=left;spacingLeft=6;overflow=hidden;html=1;whiteSpace=wrap;" parent="1YhN6j1r-1prUdyuXXBl-8" vertex="1">
          <mxGeometry x="60" width="120" height="30" as="geometry">
            <mxRectangle width="120" height="30" as="alternateBounds" />
          </mxGeometry>
        </mxCell>
        <mxCell id="kmYilYqnJgTo9celBA7s-65" value="" style="shape=tableRow;horizontal=0;startSize=0;swimlaneHead=0;swimlaneBody=0;fillColor=none;collapsible=0;dropTarget=0;points=[[0,0.5],[1,0.5]];portConstraint=eastwest;top=0;left=0;right=0;bottom=0;html=1;" parent="1YhN6j1r-1prUdyuXXBl-1" vertex="1">
          <mxGeometry y="60" width="180" height="30" as="geometry" />
        </mxCell>
        <mxCell id="kmYilYqnJgTo9celBA7s-66" value="FK" style="shape=partialRectangle;connectable=0;fillColor=none;top=0;left=0;bottom=0;right=0;editable=1;overflow=hidden;html=1;whiteSpace=wrap;" parent="kmYilYqnJgTo9celBA7s-65" vertex="1">
          <mxGeometry width="60" height="30" as="geometry">
            <mxRectangle width="60" height="30" as="alternateBounds" />
          </mxGeometry>
        </mxCell>
        <mxCell id="kmYilYqnJgTo9celBA7s-67" value="id_aluno_autor" style="shape=partialRectangle;connectable=0;fillColor=none;top=0;left=0;bottom=0;right=0;align=left;spacingLeft=6;overflow=hidden;html=1;whiteSpace=wrap;" parent="kmYilYqnJgTo9celBA7s-65" vertex="1">
          <mxGeometry x="60" width="120" height="30" as="geometry">
            <mxRectangle width="120" height="30" as="alternateBounds" />
          </mxGeometry>
        </mxCell>
        <mxCell id="kmYilYqnJgTo9celBA7s-62" value="" style="shape=tableRow;horizontal=0;startSize=0;swimlaneHead=0;swimlaneBody=0;fillColor=none;collapsible=0;dropTarget=0;points=[[0,0.5],[1,0.5]];portConstraint=eastwest;top=0;left=0;right=0;bottom=0;html=1;" parent="1YhN6j1r-1prUdyuXXBl-1" vertex="1">
          <mxGeometry y="90" width="180" height="30" as="geometry" />
        </mxCell>
        <mxCell id="kmYilYqnJgTo9celBA7s-63" value="" style="shape=partialRectangle;connectable=0;fillColor=none;top=0;left=0;bottom=0;right=0;editable=1;overflow=hidden;html=1;whiteSpace=wrap;" parent="kmYilYqnJgTo9celBA7s-62" vertex="1">
          <mxGeometry width="60" height="30" as="geometry">
            <mxRectangle width="60" height="30" as="alternateBounds" />
          </mxGeometry>
        </mxCell>
        <mxCell id="kmYilYqnJgTo9celBA7s-64" value="titulo" style="shape=partialRectangle;connectable=0;fillColor=none;top=0;left=0;bottom=0;right=0;align=left;spacingLeft=6;overflow=hidden;html=1;whiteSpace=wrap;" parent="kmYilYqnJgTo9celBA7s-62" vertex="1">
          <mxGeometry x="60" width="120" height="30" as="geometry">
            <mxRectangle width="120" height="30" as="alternateBounds" />
          </mxGeometry>
        </mxCell>
        <mxCell id="1YhN6j1r-1prUdyuXXBl-11" value="" style="shape=tableRow;horizontal=0;startSize=0;swimlaneHead=0;swimlaneBody=0;fillColor=none;collapsible=0;dropTarget=0;points=[[0,0.5],[1,0.5]];portConstraint=eastwest;top=0;left=0;right=0;bottom=0;html=1;" parent="1YhN6j1r-1prUdyuXXBl-1" vertex="1">
          <mxGeometry y="120" width="180" height="30" as="geometry" />
        </mxCell>
        <mxCell id="1YhN6j1r-1prUdyuXXBl-12" value="" style="shape=partialRectangle;connectable=0;fillColor=none;top=0;left=0;bottom=0;right=0;editable=1;overflow=hidden;html=1;whiteSpace=wrap;" parent="1YhN6j1r-1prUdyuXXBl-11" vertex="1">
          <mxGeometry width="60" height="30" as="geometry">
            <mxRectangle width="60" height="30" as="alternateBounds" />
          </mxGeometry>
        </mxCell>
        <mxCell id="1YhN6j1r-1prUdyuXXBl-13" value="descricao" style="shape=partialRectangle;connectable=0;fillColor=none;top=0;left=0;bottom=0;right=0;align=left;spacingLeft=6;overflow=hidden;html=1;whiteSpace=wrap;" parent="1YhN6j1r-1prUdyuXXBl-11" vertex="1">
          <mxGeometry x="60" width="120" height="30" as="geometry">
            <mxRectangle width="120" height="30" as="alternateBounds" />
          </mxGeometry>
        </mxCell>
        <mxCell id="kmYilYqnJgTo9celBA7s-76" value="" style="shape=tableRow;horizontal=0;startSize=0;swimlaneHead=0;swimlaneBody=0;fillColor=none;collapsible=0;dropTarget=0;points=[[0,0.5],[1,0.5]];portConstraint=eastwest;top=0;left=0;right=0;bottom=0;html=1;" parent="1YhN6j1r-1prUdyuXXBl-1" vertex="1">
          <mxGeometry y="150" width="180" height="30" as="geometry" />
        </mxCell>
        <mxCell id="kmYilYqnJgTo9celBA7s-77" value="" style="shape=partialRectangle;connectable=0;fillColor=none;top=0;left=0;bottom=0;right=0;editable=1;overflow=hidden;html=1;whiteSpace=wrap;" parent="kmYilYqnJgTo9celBA7s-76" vertex="1">
          <mxGeometry width="60" height="30" as="geometry">
            <mxRectangle width="60" height="30" as="alternateBounds" />
          </mxGeometry>
        </mxCell>
        <mxCell id="kmYilYqnJgTo9celBA7s-78" value="data_cadastro" style="shape=partialRectangle;connectable=0;fillColor=none;top=0;left=0;bottom=0;right=0;align=left;spacingLeft=6;overflow=hidden;html=1;whiteSpace=wrap;" parent="kmYilYqnJgTo9celBA7s-76" vertex="1">
          <mxGeometry x="60" width="120" height="30" as="geometry">
            <mxRectangle width="120" height="30" as="alternateBounds" />
          </mxGeometry>
        </mxCell>
        <mxCell id="1YhN6j1r-1prUdyuXXBl-39" value="ALUNO" style="shape=table;startSize=30;container=1;collapsible=1;childLayout=tableLayout;fixedRows=1;rowLines=0;fontStyle=1;align=center;resizeLast=1;html=1;whiteSpace=wrap;fillColor=#d5e8d4;strokeColor=#82b366;" parent="1" vertex="1">
          <mxGeometry x="329" y="260" width="180" height="300" as="geometry" />
        </mxCell>
        <mxCell id="DAVtMT2fN0Toa0u_V9ZZ-63" value="" style="shape=tableRow;horizontal=0;startSize=0;swimlaneHead=0;swimlaneBody=0;fillColor=none;collapsible=0;dropTarget=0;points=[[0,0.5],[1,0.5]];portConstraint=eastwest;top=0;left=0;right=0;bottom=0;html=1;" parent="1YhN6j1r-1prUdyuXXBl-39" vertex="1">
          <mxGeometry y="30" width="180" height="30" as="geometry" />
        </mxCell>
        <mxCell id="DAVtMT2fN0Toa0u_V9ZZ-64" value="PK" style="shape=partialRectangle;connectable=0;fillColor=none;top=0;left=0;bottom=0;right=0;editable=1;overflow=hidden;html=1;whiteSpace=wrap;" parent="DAVtMT2fN0Toa0u_V9ZZ-63" vertex="1">
          <mxGeometry width="60" height="30" as="geometry">
            <mxRectangle width="60" height="30" as="alternateBounds" />
          </mxGeometry>
        </mxCell>
        <mxCell id="DAVtMT2fN0Toa0u_V9ZZ-65" value="id_aluno" style="shape=partialRectangle;connectable=0;fillColor=none;top=0;left=0;bottom=0;right=0;align=left;spacingLeft=6;overflow=hidden;html=1;whiteSpace=wrap;" parent="DAVtMT2fN0Toa0u_V9ZZ-63" vertex="1">
          <mxGeometry x="60" width="120" height="30" as="geometry">
            <mxRectangle width="120" height="30" as="alternateBounds" />
          </mxGeometry>
        </mxCell>
        <mxCell id="DAVtMT2fN0Toa0u_V9ZZ-66" value="" style="shape=tableRow;horizontal=0;startSize=0;swimlaneHead=0;swimlaneBody=0;fillColor=none;collapsible=0;dropTarget=0;points=[[0,0.5],[1,0.5]];portConstraint=eastwest;top=0;left=0;right=0;bottom=0;html=1;" parent="1YhN6j1r-1prUdyuXXBl-39" vertex="1">
          <mxGeometry y="60" width="180" height="30" as="geometry" />
        </mxCell>
        <mxCell id="DAVtMT2fN0Toa0u_V9ZZ-67" value="" style="shape=partialRectangle;connectable=0;fillColor=none;top=0;left=0;bottom=0;right=0;editable=1;overflow=hidden;html=1;whiteSpace=wrap;" parent="DAVtMT2fN0Toa0u_V9ZZ-66" vertex="1">
          <mxGeometry width="60" height="30" as="geometry">
            <mxRectangle width="60" height="30" as="alternateBounds" />
          </mxGeometry>
        </mxCell>
        <mxCell id="DAVtMT2fN0Toa0u_V9ZZ-68" value="user_id" style="shape=partialRectangle;connectable=0;fillColor=none;top=0;left=0;bottom=0;right=0;align=left;spacingLeft=6;overflow=hidden;html=1;whiteSpace=wrap;" parent="DAVtMT2fN0Toa0u_V9ZZ-66" vertex="1">
          <mxGeometry x="60" width="120" height="30" as="geometry">
            <mxRectangle width="120" height="30" as="alternateBounds" />
          </mxGeometry>
        </mxCell>
        <mxCell id="ygUNU5e9DCOtm-Byanlt-20" value="" style="shape=tableRow;horizontal=0;startSize=0;swimlaneHead=0;swimlaneBody=0;fillColor=none;collapsible=0;dropTarget=0;points=[[0,0.5],[1,0.5]];portConstraint=eastwest;top=0;left=0;right=0;bottom=0;html=1;" parent="1YhN6j1r-1prUdyuXXBl-39" vertex="1">
          <mxGeometry y="90" width="180" height="30" as="geometry" />
        </mxCell>
        <mxCell id="ygUNU5e9DCOtm-Byanlt-21" value="" style="shape=partialRectangle;connectable=0;fillColor=none;top=0;left=0;bottom=0;right=0;editable=1;overflow=hidden;html=1;whiteSpace=wrap;" parent="ygUNU5e9DCOtm-Byanlt-20" vertex="1">
          <mxGeometry width="60" height="30" as="geometry">
            <mxRectangle width="60" height="30" as="alternateBounds" />
          </mxGeometry>
        </mxCell>
        <mxCell id="ygUNU5e9DCOtm-Byanlt-22" value="ra" style="shape=partialRectangle;connectable=0;fillColor=none;top=0;left=0;bottom=0;right=0;align=left;spacingLeft=6;overflow=hidden;html=1;whiteSpace=wrap;" parent="ygUNU5e9DCOtm-Byanlt-20" vertex="1">
          <mxGeometry x="60" width="120" height="30" as="geometry">
            <mxRectangle width="120" height="30" as="alternateBounds" />
          </mxGeometry>
        </mxCell>
        <mxCell id="1YhN6j1r-1prUdyuXXBl-46" value="" style="shape=tableRow;horizontal=0;startSize=0;swimlaneHead=0;swimlaneBody=0;fillColor=none;collapsible=0;dropTarget=0;points=[[0,0.5],[1,0.5]];portConstraint=eastwest;top=0;left=0;right=0;bottom=0;html=1;" parent="1YhN6j1r-1prUdyuXXBl-39" vertex="1">
          <mxGeometry y="120" width="180" height="30" as="geometry" />
        </mxCell>
        <mxCell id="1YhN6j1r-1prUdyuXXBl-47" value="" style="shape=partialRectangle;connectable=0;fillColor=none;top=0;left=0;bottom=0;right=0;editable=1;overflow=hidden;html=1;whiteSpace=wrap;" parent="1YhN6j1r-1prUdyuXXBl-46" vertex="1">
          <mxGeometry width="60" height="30" as="geometry">
            <mxRectangle width="60" height="30" as="alternateBounds" />
          </mxGeometry>
        </mxCell>
        <mxCell id="1YhN6j1r-1prUdyuXXBl-48" value="nome" style="shape=partialRectangle;connectable=0;fillColor=none;top=0;left=0;bottom=0;right=0;align=left;spacingLeft=6;overflow=hidden;html=1;whiteSpace=wrap;" parent="1YhN6j1r-1prUdyuXXBl-46" vertex="1">
          <mxGeometry x="60" width="120" height="30" as="geometry">
            <mxRectangle width="120" height="30" as="alternateBounds" />
          </mxGeometry>
        </mxCell>
        <mxCell id="1YhN6j1r-1prUdyuXXBl-49" value="" style="shape=tableRow;horizontal=0;startSize=0;swimlaneHead=0;swimlaneBody=0;fillColor=none;collapsible=0;dropTarget=0;points=[[0,0.5],[1,0.5]];portConstraint=eastwest;top=0;left=0;right=0;bottom=0;html=1;" parent="1YhN6j1r-1prUdyuXXBl-39" vertex="1">
          <mxGeometry y="150" width="180" height="30" as="geometry" />
        </mxCell>
        <mxCell id="1YhN6j1r-1prUdyuXXBl-50" value="" style="shape=partialRectangle;connectable=0;fillColor=none;top=0;left=0;bottom=0;right=0;editable=1;overflow=hidden;html=1;whiteSpace=wrap;" parent="1YhN6j1r-1prUdyuXXBl-49" vertex="1">
          <mxGeometry width="60" height="30" as="geometry">
            <mxRectangle width="60" height="30" as="alternateBounds" />
          </mxGeometry>
        </mxCell>
        <mxCell id="1YhN6j1r-1prUdyuXXBl-51" value="e-mail" style="shape=partialRectangle;connectable=0;fillColor=none;top=0;left=0;bottom=0;right=0;align=left;spacingLeft=6;overflow=hidden;html=1;whiteSpace=wrap;" parent="1YhN6j1r-1prUdyuXXBl-49" vertex="1">
          <mxGeometry x="60" width="120" height="30" as="geometry">
            <mxRectangle width="120" height="30" as="alternateBounds" />
          </mxGeometry>
        </mxCell>
        <mxCell id="1YhN6j1r-1prUdyuXXBl-52" value="" style="shape=tableRow;horizontal=0;startSize=0;swimlaneHead=0;swimlaneBody=0;fillColor=none;collapsible=0;dropTarget=0;points=[[0,0.5],[1,0.5]];portConstraint=eastwest;top=0;left=0;right=0;bottom=0;html=1;" parent="1YhN6j1r-1prUdyuXXBl-39" vertex="1">
          <mxGeometry y="180" width="180" height="30" as="geometry" />
        </mxCell>
        <mxCell id="1YhN6j1r-1prUdyuXXBl-53" value="" style="shape=partialRectangle;connectable=0;fillColor=none;top=0;left=0;bottom=0;right=0;editable=1;overflow=hidden;html=1;whiteSpace=wrap;" parent="1YhN6j1r-1prUdyuXXBl-52" vertex="1">
          <mxGeometry width="60" height="30" as="geometry">
            <mxRectangle width="60" height="30" as="alternateBounds" />
          </mxGeometry>
        </mxCell>
        <mxCell id="1YhN6j1r-1prUdyuXXBl-54" value="curso" style="shape=partialRectangle;connectable=0;fillColor=none;top=0;left=0;bottom=0;right=0;align=left;spacingLeft=6;overflow=hidden;html=1;whiteSpace=wrap;" parent="1YhN6j1r-1prUdyuXXBl-52" vertex="1">
          <mxGeometry x="60" width="120" height="30" as="geometry">
            <mxRectangle width="120" height="30" as="alternateBounds" />
          </mxGeometry>
        </mxCell>
        <mxCell id="l12U87i_hpoQP04GNgLF-1" value="" style="shape=tableRow;horizontal=0;startSize=0;swimlaneHead=0;swimlaneBody=0;fillColor=none;collapsible=0;dropTarget=0;points=[[0,0.5],[1,0.5]];portConstraint=eastwest;top=0;left=0;right=0;bottom=0;html=1;" parent="1YhN6j1r-1prUdyuXXBl-39" vertex="1">
          <mxGeometry y="210" width="180" height="30" as="geometry" />
        </mxCell>
        <mxCell id="l12U87i_hpoQP04GNgLF-2" value="" style="shape=partialRectangle;connectable=0;fillColor=none;top=0;left=0;bottom=0;right=0;editable=1;overflow=hidden;html=1;whiteSpace=wrap;" parent="l12U87i_hpoQP04GNgLF-1" vertex="1">
          <mxGeometry width="60" height="30" as="geometry">
            <mxRectangle width="60" height="30" as="alternateBounds" />
          </mxGeometry>
        </mxCell>
        <mxCell id="l12U87i_hpoQP04GNgLF-3" value="periodo" style="shape=partialRectangle;connectable=0;fillColor=none;top=0;left=0;bottom=0;right=0;align=left;spacingLeft=6;overflow=hidden;html=1;whiteSpace=wrap;" parent="l12U87i_hpoQP04GNgLF-1" vertex="1">
          <mxGeometry x="60" width="120" height="30" as="geometry">
            <mxRectangle width="120" height="30" as="alternateBounds" />
          </mxGeometry>
        </mxCell>
        <mxCell id="DAVtMT2fN0Toa0u_V9ZZ-69" value="" style="shape=tableRow;horizontal=0;startSize=0;swimlaneHead=0;swimlaneBody=0;fillColor=none;collapsible=0;dropTarget=0;points=[[0,0.5],[1,0.5]];portConstraint=eastwest;top=0;left=0;right=0;bottom=0;html=1;" parent="1YhN6j1r-1prUdyuXXBl-39" vertex="1">
          <mxGeometry y="240" width="180" height="30" as="geometry" />
        </mxCell>
        <mxCell id="DAVtMT2fN0Toa0u_V9ZZ-70" value="" style="shape=partialRectangle;connectable=0;fillColor=none;top=0;left=0;bottom=0;right=0;editable=1;overflow=hidden;html=1;whiteSpace=wrap;" parent="DAVtMT2fN0Toa0u_V9ZZ-69" vertex="1">
          <mxGeometry width="60" height="30" as="geometry">
            <mxRectangle width="60" height="30" as="alternateBounds" />
          </mxGeometry>
        </mxCell>
        <mxCell id="DAVtMT2fN0Toa0u_V9ZZ-71" value="email_inst_verif" style="shape=partialRectangle;connectable=0;fillColor=none;top=0;left=0;bottom=0;right=0;align=left;spacingLeft=6;overflow=hidden;html=1;whiteSpace=wrap;" parent="DAVtMT2fN0Toa0u_V9ZZ-69" vertex="1">
          <mxGeometry x="60" width="120" height="30" as="geometry">
            <mxRectangle width="120" height="30" as="alternateBounds" />
          </mxGeometry>
        </mxCell>
        <mxCell id="DAVtMT2fN0Toa0u_V9ZZ-72" value="" style="shape=tableRow;horizontal=0;startSize=0;swimlaneHead=0;swimlaneBody=0;fillColor=none;collapsible=0;dropTarget=0;points=[[0,0.5],[1,0.5]];portConstraint=eastwest;top=0;left=0;right=0;bottom=0;html=1;" parent="1YhN6j1r-1prUdyuXXBl-39" vertex="1">
          <mxGeometry y="270" width="180" height="30" as="geometry" />
        </mxCell>
        <mxCell id="DAVtMT2fN0Toa0u_V9ZZ-73" value="" style="shape=partialRectangle;connectable=0;fillColor=none;top=0;left=0;bottom=0;right=0;editable=1;overflow=hidden;html=1;whiteSpace=wrap;" parent="DAVtMT2fN0Toa0u_V9ZZ-72" vertex="1">
          <mxGeometry width="60" height="30" as="geometry">
            <mxRectangle width="60" height="30" as="alternateBounds" />
          </mxGeometry>
        </mxCell>
        <mxCell id="DAVtMT2fN0Toa0u_V9ZZ-74" value="codigo" style="shape=partialRectangle;connectable=0;fillColor=none;top=0;left=0;bottom=0;right=0;align=left;spacingLeft=6;overflow=hidden;html=1;whiteSpace=wrap;" parent="DAVtMT2fN0Toa0u_V9ZZ-72" vertex="1">
          <mxGeometry x="60" width="120" height="30" as="geometry">
            <mxRectangle width="120" height="30" as="alternateBounds" />
          </mxGeometry>
        </mxCell>
        <mxCell id="1YhN6j1r-1prUdyuXXBl-67" value="BANCA" style="shape=table;startSize=30;container=1;collapsible=1;childLayout=tableLayout;fixedRows=1;rowLines=0;fontStyle=1;align=center;resizeLast=1;html=1;whiteSpace=wrap;fillColor=#e1d5e7;strokeColor=#9673a6;" parent="1" vertex="1">
          <mxGeometry x="-260" y="-70" width="180" height="150" as="geometry" />
        </mxCell>
        <mxCell id="1YhN6j1r-1prUdyuXXBl-68" value="" style="shape=tableRow;horizontal=0;startSize=0;swimlaneHead=0;swimlaneBody=0;fillColor=none;collapsible=0;dropTarget=0;points=[[0,0.5],[1,0.5]];portConstraint=eastwest;top=0;left=0;right=0;bottom=0;html=1;" parent="1YhN6j1r-1prUdyuXXBl-67" vertex="1">
          <mxGeometry y="30" width="180" height="30" as="geometry" />
        </mxCell>
        <mxCell id="1YhN6j1r-1prUdyuXXBl-69" value="PK" style="shape=partialRectangle;connectable=0;fillColor=none;top=0;left=0;bottom=0;right=0;fontStyle=1;overflow=hidden;html=1;whiteSpace=wrap;" parent="1YhN6j1r-1prUdyuXXBl-68" vertex="1">
          <mxGeometry width="60" height="30" as="geometry">
            <mxRectangle width="60" height="30" as="alternateBounds" />
          </mxGeometry>
        </mxCell>
        <mxCell id="1YhN6j1r-1prUdyuXXBl-70" value="id_banca" style="shape=partialRectangle;connectable=0;fillColor=none;top=0;left=0;bottom=0;right=0;align=left;spacingLeft=6;fontStyle=5;overflow=hidden;html=1;whiteSpace=wrap;" parent="1YhN6j1r-1prUdyuXXBl-68" vertex="1">
          <mxGeometry x="60" width="120" height="30" as="geometry">
            <mxRectangle width="120" height="30" as="alternateBounds" />
          </mxGeometry>
        </mxCell>
        <mxCell id="kmYilYqnJgTo9celBA7s-85" value="" style="shape=tableRow;horizontal=0;startSize=0;swimlaneHead=0;swimlaneBody=0;fillColor=none;collapsible=0;dropTarget=0;points=[[0,0.5],[1,0.5]];portConstraint=eastwest;top=0;left=0;right=0;bottom=0;html=1;" parent="1YhN6j1r-1prUdyuXXBl-67" vertex="1">
          <mxGeometry y="60" width="180" height="30" as="geometry" />
        </mxCell>
        <mxCell id="kmYilYqnJgTo9celBA7s-86" value="FK" style="shape=partialRectangle;connectable=0;fillColor=none;top=0;left=0;bottom=0;right=0;fontStyle=1;overflow=hidden;html=1;whiteSpace=wrap;" parent="kmYilYqnJgTo9celBA7s-85" vertex="1">
          <mxGeometry width="60" height="30" as="geometry">
            <mxRectangle width="60" height="30" as="alternateBounds" />
          </mxGeometry>
        </mxCell>
        <mxCell id="kmYilYqnJgTo9celBA7s-87" value="id_trabalho" style="shape=partialRectangle;connectable=0;fillColor=none;top=0;left=0;bottom=0;right=0;align=left;spacingLeft=6;fontStyle=5;overflow=hidden;html=1;whiteSpace=wrap;" parent="kmYilYqnJgTo9celBA7s-85" vertex="1">
          <mxGeometry x="60" width="120" height="30" as="geometry">
            <mxRectangle width="120" height="30" as="alternateBounds" />
          </mxGeometry>
        </mxCell>
        <mxCell id="1YhN6j1r-1prUdyuXXBl-74" value="" style="shape=tableRow;horizontal=0;startSize=0;swimlaneHead=0;swimlaneBody=0;fillColor=none;collapsible=0;dropTarget=0;points=[[0,0.5],[1,0.5]];portConstraint=eastwest;top=0;left=0;right=0;bottom=0;html=1;" parent="1YhN6j1r-1prUdyuXXBl-67" vertex="1">
          <mxGeometry y="90" width="180" height="30" as="geometry" />
        </mxCell>
        <mxCell id="1YhN6j1r-1prUdyuXXBl-75" value="" style="shape=partialRectangle;connectable=0;fillColor=none;top=0;left=0;bottom=0;right=0;editable=1;overflow=hidden;html=1;whiteSpace=wrap;" parent="1YhN6j1r-1prUdyuXXBl-74" vertex="1">
          <mxGeometry width="60" height="30" as="geometry">
            <mxRectangle width="60" height="30" as="alternateBounds" />
          </mxGeometry>
        </mxCell>
        <mxCell id="1YhN6j1r-1prUdyuXXBl-76" value="data_hora" style="shape=partialRectangle;connectable=0;fillColor=none;top=0;left=0;bottom=0;right=0;align=left;spacingLeft=6;overflow=hidden;html=1;whiteSpace=wrap;" parent="1YhN6j1r-1prUdyuXXBl-74" vertex="1">
          <mxGeometry x="60" width="120" height="30" as="geometry">
            <mxRectangle width="120" height="30" as="alternateBounds" />
          </mxGeometry>
        </mxCell>
        <mxCell id="kmYilYqnJgTo9celBA7s-124" value="" style="shape=tableRow;horizontal=0;startSize=0;swimlaneHead=0;swimlaneBody=0;fillColor=none;collapsible=0;dropTarget=0;points=[[0,0.5],[1,0.5]];portConstraint=eastwest;top=0;left=0;right=0;bottom=0;html=1;" parent="1YhN6j1r-1prUdyuXXBl-67" vertex="1">
          <mxGeometry y="120" width="180" height="30" as="geometry" />
        </mxCell>
        <mxCell id="kmYilYqnJgTo9celBA7s-125" value="" style="shape=partialRectangle;connectable=0;fillColor=none;top=0;left=0;bottom=0;right=0;editable=1;overflow=hidden;html=1;whiteSpace=wrap;" parent="kmYilYqnJgTo9celBA7s-124" vertex="1">
          <mxGeometry width="60" height="30" as="geometry">
            <mxRectangle width="60" height="30" as="alternateBounds" />
          </mxGeometry>
        </mxCell>
        <mxCell id="kmYilYqnJgTo9celBA7s-126" value="comentarios" style="shape=partialRectangle;connectable=0;fillColor=none;top=0;left=0;bottom=0;right=0;align=left;spacingLeft=6;overflow=hidden;html=1;whiteSpace=wrap;" parent="kmYilYqnJgTo9celBA7s-124" vertex="1">
          <mxGeometry x="60" width="120" height="30" as="geometry">
            <mxRectangle width="120" height="30" as="alternateBounds" />
          </mxGeometry>
        </mxCell>
        <mxCell id="1YhN6j1r-1prUdyuXXBl-96" value="AVALIACAO" style="shape=table;startSize=30;container=1;collapsible=1;childLayout=tableLayout;fixedRows=1;rowLines=0;fontStyle=1;align=center;resizeLast=1;html=1;whiteSpace=wrap;fillColor=#e1d5e7;strokeColor=#9673a6;" parent="1" vertex="1">
          <mxGeometry x="-260" y="120" width="180" height="180" as="geometry" />
        </mxCell>
        <mxCell id="1YhN6j1r-1prUdyuXXBl-97" value="" style="shape=tableRow;horizontal=0;startSize=0;swimlaneHead=0;swimlaneBody=0;fillColor=none;collapsible=0;dropTarget=0;points=[[0,0.5],[1,0.5]];portConstraint=eastwest;top=0;left=0;right=0;bottom=0;html=1;" parent="1YhN6j1r-1prUdyuXXBl-96" vertex="1">
          <mxGeometry y="30" width="180" height="30" as="geometry" />
        </mxCell>
        <mxCell id="1YhN6j1r-1prUdyuXXBl-98" value="PK" style="shape=partialRectangle;connectable=0;fillColor=none;top=0;left=0;bottom=0;right=0;fontStyle=1;overflow=hidden;html=1;whiteSpace=wrap;" parent="1YhN6j1r-1prUdyuXXBl-97" vertex="1">
          <mxGeometry width="60" height="30" as="geometry">
            <mxRectangle width="60" height="30" as="alternateBounds" />
          </mxGeometry>
        </mxCell>
        <mxCell id="1YhN6j1r-1prUdyuXXBl-99" value="id_avaliacao" style="shape=partialRectangle;connectable=0;fillColor=none;top=0;left=0;bottom=0;right=0;align=left;spacingLeft=6;fontStyle=5;overflow=hidden;html=1;whiteSpace=wrap;" parent="1YhN6j1r-1prUdyuXXBl-97" vertex="1">
          <mxGeometry x="60" width="120" height="30" as="geometry">
            <mxRectangle width="120" height="30" as="alternateBounds" />
          </mxGeometry>
        </mxCell>
        <mxCell id="kmYilYqnJgTo9celBA7s-79" value="" style="shape=tableRow;horizontal=0;startSize=0;swimlaneHead=0;swimlaneBody=0;fillColor=none;collapsible=0;dropTarget=0;points=[[0,0.5],[1,0.5]];portConstraint=eastwest;top=0;left=0;right=0;bottom=0;html=1;" parent="1YhN6j1r-1prUdyuXXBl-96" vertex="1">
          <mxGeometry y="60" width="180" height="30" as="geometry" />
        </mxCell>
        <mxCell id="kmYilYqnJgTo9celBA7s-80" value="FK" style="shape=partialRectangle;connectable=0;fillColor=none;top=0;left=0;bottom=0;right=0;fontStyle=1;overflow=hidden;html=1;whiteSpace=wrap;" parent="kmYilYqnJgTo9celBA7s-79" vertex="1">
          <mxGeometry width="60" height="30" as="geometry">
            <mxRectangle width="60" height="30" as="alternateBounds" />
          </mxGeometry>
        </mxCell>
        <mxCell id="kmYilYqnJgTo9celBA7s-81" value="id_professor" style="shape=partialRectangle;connectable=0;fillColor=none;top=0;left=0;bottom=0;right=0;align=left;spacingLeft=6;fontStyle=5;overflow=hidden;html=1;whiteSpace=wrap;" parent="kmYilYqnJgTo9celBA7s-79" vertex="1">
          <mxGeometry x="60" width="120" height="30" as="geometry">
            <mxRectangle width="120" height="30" as="alternateBounds" />
          </mxGeometry>
        </mxCell>
        <mxCell id="1YhN6j1r-1prUdyuXXBl-113" value="" style="shape=tableRow;horizontal=0;startSize=0;swimlaneHead=0;swimlaneBody=0;fillColor=none;collapsible=0;dropTarget=0;points=[[0,0.5],[1,0.5]];portConstraint=eastwest;top=0;left=0;right=0;bottom=0;html=1;" parent="1YhN6j1r-1prUdyuXXBl-96" vertex="1">
          <mxGeometry y="90" width="180" height="30" as="geometry" />
        </mxCell>
        <mxCell id="1YhN6j1r-1prUdyuXXBl-114" value="FK" style="shape=partialRectangle;connectable=0;fillColor=none;top=0;left=0;bottom=0;right=0;fontStyle=1;overflow=hidden;html=1;whiteSpace=wrap;" parent="1YhN6j1r-1prUdyuXXBl-113" vertex="1">
          <mxGeometry width="60" height="30" as="geometry">
            <mxRectangle width="60" height="30" as="alternateBounds" />
          </mxGeometry>
        </mxCell>
        <mxCell id="1YhN6j1r-1prUdyuXXBl-115" value="id_trabalho" style="shape=partialRectangle;connectable=0;fillColor=none;top=0;left=0;bottom=0;right=0;align=left;spacingLeft=6;fontStyle=5;overflow=hidden;html=1;whiteSpace=wrap;" parent="1YhN6j1r-1prUdyuXXBl-113" vertex="1">
          <mxGeometry x="60" width="120" height="30" as="geometry">
            <mxRectangle width="120" height="30" as="alternateBounds" />
          </mxGeometry>
        </mxCell>
        <mxCell id="1YhN6j1r-1prUdyuXXBl-103" value="" style="shape=tableRow;horizontal=0;startSize=0;swimlaneHead=0;swimlaneBody=0;fillColor=none;collapsible=0;dropTarget=0;points=[[0,0.5],[1,0.5]];portConstraint=eastwest;top=0;left=0;right=0;bottom=0;html=1;" parent="1YhN6j1r-1prUdyuXXBl-96" vertex="1">
          <mxGeometry y="120" width="180" height="30" as="geometry" />
        </mxCell>
        <mxCell id="1YhN6j1r-1prUdyuXXBl-104" value="" style="shape=partialRectangle;connectable=0;fillColor=none;top=0;left=0;bottom=0;right=0;editable=1;overflow=hidden;html=1;whiteSpace=wrap;" parent="1YhN6j1r-1prUdyuXXBl-103" vertex="1">
          <mxGeometry width="60" height="30" as="geometry">
            <mxRectangle width="60" height="30" as="alternateBounds" />
          </mxGeometry>
        </mxCell>
        <mxCell id="1YhN6j1r-1prUdyuXXBl-105" value="valor" style="shape=partialRectangle;connectable=0;fillColor=none;top=0;left=0;bottom=0;right=0;align=left;spacingLeft=6;overflow=hidden;html=1;whiteSpace=wrap;" parent="1YhN6j1r-1prUdyuXXBl-103" vertex="1">
          <mxGeometry x="60" width="120" height="30" as="geometry">
            <mxRectangle width="120" height="30" as="alternateBounds" />
          </mxGeometry>
        </mxCell>
        <mxCell id="1YhN6j1r-1prUdyuXXBl-109" value="" style="shape=tableRow;horizontal=0;startSize=0;swimlaneHead=0;swimlaneBody=0;fillColor=none;collapsible=0;dropTarget=0;points=[[0,0.5],[1,0.5]];portConstraint=eastwest;top=0;left=0;right=0;bottom=0;html=1;" parent="1YhN6j1r-1prUdyuXXBl-96" vertex="1">
          <mxGeometry y="150" width="180" height="30" as="geometry" />
        </mxCell>
        <mxCell id="1YhN6j1r-1prUdyuXXBl-110" value="" style="shape=partialRectangle;connectable=0;fillColor=none;top=0;left=0;bottom=0;right=0;editable=1;overflow=hidden;html=1;whiteSpace=wrap;" parent="1YhN6j1r-1prUdyuXXBl-109" vertex="1">
          <mxGeometry width="60" height="30" as="geometry">
            <mxRectangle width="60" height="30" as="alternateBounds" />
          </mxGeometry>
        </mxCell>
        <mxCell id="1YhN6j1r-1prUdyuXXBl-111" value="comentario" style="shape=partialRectangle;connectable=0;fillColor=none;top=0;left=0;bottom=0;right=0;align=left;spacingLeft=6;overflow=hidden;html=1;whiteSpace=wrap;" parent="1YhN6j1r-1prUdyuXXBl-109" vertex="1">
          <mxGeometry x="60" width="120" height="30" as="geometry">
            <mxRectangle width="120" height="30" as="alternateBounds" />
          </mxGeometry>
        </mxCell>
        <mxCell id="bn7_tzNyp4nqcWYKTzEw-11" value="CERTIFICADO" style="shape=table;startSize=30;container=1;collapsible=1;childLayout=tableLayout;fixedRows=1;rowLines=0;fontStyle=1;align=center;resizeLast=1;html=1;whiteSpace=wrap;fillColor=#dae8fc;strokeColor=#6c8ebf;" parent="1" vertex="1">
          <mxGeometry x="60" y="-240" width="180" height="180" as="geometry" />
        </mxCell>
        <mxCell id="bn7_tzNyp4nqcWYKTzEw-12" value="" style="shape=tableRow;horizontal=0;startSize=0;swimlaneHead=0;swimlaneBody=0;fillColor=none;collapsible=0;dropTarget=0;points=[[0,0.5],[1,0.5]];portConstraint=eastwest;top=0;left=0;right=0;bottom=0;html=1;" parent="bn7_tzNyp4nqcWYKTzEw-11" vertex="1">
          <mxGeometry y="30" width="180" height="30" as="geometry" />
        </mxCell>
        <mxCell id="bn7_tzNyp4nqcWYKTzEw-13" value="PK" style="shape=partialRectangle;connectable=0;fillColor=none;top=0;left=0;bottom=0;right=0;fontStyle=1;overflow=hidden;html=1;whiteSpace=wrap;" parent="bn7_tzNyp4nqcWYKTzEw-12" vertex="1">
          <mxGeometry width="60" height="30" as="geometry">
            <mxRectangle width="60" height="30" as="alternateBounds" />
          </mxGeometry>
        </mxCell>
        <mxCell id="bn7_tzNyp4nqcWYKTzEw-14" value="id_certificado" style="shape=partialRectangle;connectable=0;fillColor=none;top=0;left=0;bottom=0;right=0;align=left;spacingLeft=6;fontStyle=5;overflow=hidden;html=1;whiteSpace=wrap;" parent="bn7_tzNyp4nqcWYKTzEw-12" vertex="1">
          <mxGeometry x="60" width="120" height="30" as="geometry">
            <mxRectangle width="120" height="30" as="alternateBounds" />
          </mxGeometry>
        </mxCell>
        <mxCell id="bn7_tzNyp4nqcWYKTzEw-15" value="" style="shape=tableRow;horizontal=0;startSize=0;swimlaneHead=0;swimlaneBody=0;fillColor=none;collapsible=0;dropTarget=0;points=[[0,0.5],[1,0.5]];portConstraint=eastwest;top=0;left=0;right=0;bottom=0;html=1;" parent="bn7_tzNyp4nqcWYKTzEw-11" vertex="1">
          <mxGeometry y="60" width="180" height="30" as="geometry" />
        </mxCell>
        <mxCell id="bn7_tzNyp4nqcWYKTzEw-16" value="FK" style="shape=partialRectangle;connectable=0;fillColor=none;top=0;left=0;bottom=0;right=0;fontStyle=1;overflow=hidden;html=1;whiteSpace=wrap;" parent="bn7_tzNyp4nqcWYKTzEw-15" vertex="1">
          <mxGeometry width="60" height="30" as="geometry">
            <mxRectangle width="60" height="30" as="alternateBounds" />
          </mxGeometry>
        </mxCell>
        <mxCell id="bn7_tzNyp4nqcWYKTzEw-17" value="id_prof_emissor" style="shape=partialRectangle;connectable=0;fillColor=none;top=0;left=0;bottom=0;right=0;align=left;spacingLeft=6;fontStyle=5;overflow=hidden;html=1;whiteSpace=wrap;" parent="bn7_tzNyp4nqcWYKTzEw-15" vertex="1">
          <mxGeometry x="60" width="120" height="30" as="geometry">
            <mxRectangle width="120" height="30" as="alternateBounds" />
          </mxGeometry>
        </mxCell>
        <mxCell id="kmYilYqnJgTo9celBA7s-102" value="" style="shape=tableRow;horizontal=0;startSize=0;swimlaneHead=0;swimlaneBody=0;fillColor=none;collapsible=0;dropTarget=0;points=[[0,0.5],[1,0.5]];portConstraint=eastwest;top=0;left=0;right=0;bottom=0;html=1;" parent="bn7_tzNyp4nqcWYKTzEw-11" vertex="1">
          <mxGeometry y="90" width="180" height="30" as="geometry" />
        </mxCell>
        <mxCell id="kmYilYqnJgTo9celBA7s-103" value="FK" style="shape=partialRectangle;connectable=0;fillColor=none;top=0;left=0;bottom=0;right=0;fontStyle=1;overflow=hidden;html=1;whiteSpace=wrap;" parent="kmYilYqnJgTo9celBA7s-102" vertex="1">
          <mxGeometry width="60" height="30" as="geometry">
            <mxRectangle width="60" height="30" as="alternateBounds" />
          </mxGeometry>
        </mxCell>
        <mxCell id="kmYilYqnJgTo9celBA7s-104" value="id_banca" style="shape=partialRectangle;connectable=0;fillColor=none;top=0;left=0;bottom=0;right=0;align=left;spacingLeft=6;fontStyle=5;overflow=hidden;html=1;whiteSpace=wrap;" parent="kmYilYqnJgTo9celBA7s-102" vertex="1">
          <mxGeometry x="60" width="120" height="30" as="geometry">
            <mxRectangle width="120" height="30" as="alternateBounds" />
          </mxGeometry>
        </mxCell>
        <mxCell id="bn7_tzNyp4nqcWYKTzEw-21" value="" style="shape=tableRow;horizontal=0;startSize=0;swimlaneHead=0;swimlaneBody=0;fillColor=none;collapsible=0;dropTarget=0;points=[[0,0.5],[1,0.5]];portConstraint=eastwest;top=0;left=0;right=0;bottom=0;html=1;" parent="bn7_tzNyp4nqcWYKTzEw-11" vertex="1">
          <mxGeometry y="120" width="180" height="30" as="geometry" />
        </mxCell>
        <mxCell id="bn7_tzNyp4nqcWYKTzEw-22" value="" style="shape=partialRectangle;connectable=0;fillColor=none;top=0;left=0;bottom=0;right=0;editable=1;overflow=hidden;html=1;whiteSpace=wrap;" parent="bn7_tzNyp4nqcWYKTzEw-21" vertex="1">
          <mxGeometry width="60" height="30" as="geometry">
            <mxRectangle width="60" height="30" as="alternateBounds" />
          </mxGeometry>
        </mxCell>
        <mxCell id="bn7_tzNyp4nqcWYKTzEw-23" value="dt_hora_emissao" style="shape=partialRectangle;connectable=0;fillColor=none;top=0;left=0;bottom=0;right=0;align=left;spacingLeft=6;overflow=hidden;html=1;whiteSpace=wrap;" parent="bn7_tzNyp4nqcWYKTzEw-21" vertex="1">
          <mxGeometry x="60" width="120" height="30" as="geometry">
            <mxRectangle width="120" height="30" as="alternateBounds" />
          </mxGeometry>
        </mxCell>
        <mxCell id="bn7_tzNyp4nqcWYKTzEw-24" value="" style="shape=tableRow;horizontal=0;startSize=0;swimlaneHead=0;swimlaneBody=0;fillColor=none;collapsible=0;dropTarget=0;points=[[0,0.5],[1,0.5]];portConstraint=eastwest;top=0;left=0;right=0;bottom=0;html=1;" parent="bn7_tzNyp4nqcWYKTzEw-11" vertex="1">
          <mxGeometry y="150" width="180" height="30" as="geometry" />
        </mxCell>
        <mxCell id="bn7_tzNyp4nqcWYKTzEw-25" value="" style="shape=partialRectangle;connectable=0;fillColor=none;top=0;left=0;bottom=0;right=0;editable=1;overflow=hidden;html=1;whiteSpace=wrap;" parent="bn7_tzNyp4nqcWYKTzEw-24" vertex="1">
          <mxGeometry width="60" height="30" as="geometry">
            <mxRectangle width="60" height="30" as="alternateBounds" />
          </mxGeometry>
        </mxCell>
        <mxCell id="bn7_tzNyp4nqcWYKTzEw-26" value="comentario" style="shape=partialRectangle;connectable=0;fillColor=none;top=0;left=0;bottom=0;right=0;align=left;spacingLeft=6;overflow=hidden;html=1;whiteSpace=wrap;" parent="bn7_tzNyp4nqcWYKTzEw-24" vertex="1">
          <mxGeometry x="60" width="120" height="30" as="geometry">
            <mxRectangle width="120" height="30" as="alternateBounds" />
          </mxGeometry>
        </mxCell>
        <mxCell id="KgsEIfaGhEiCO7Dnyejm-1" value="DIA-AULA" style="shape=table;startSize=30;container=1;collapsible=1;childLayout=tableLayout;fixedRows=1;rowLines=0;fontStyle=1;align=center;resizeLast=1;html=1;whiteSpace=wrap;fillColor=#ffe6cc;strokeColor=#d79b00;" parent="1" vertex="1">
          <mxGeometry x="580" y="-50" width="180" height="120" as="geometry" />
        </mxCell>
        <mxCell id="KgsEIfaGhEiCO7Dnyejm-2" value="" style="shape=tableRow;horizontal=0;startSize=0;swimlaneHead=0;swimlaneBody=0;fillColor=none;collapsible=0;dropTarget=0;points=[[0,0.5],[1,0.5]];portConstraint=eastwest;top=0;left=0;right=0;bottom=0;html=1;" parent="KgsEIfaGhEiCO7Dnyejm-1" vertex="1">
          <mxGeometry y="30" width="180" height="30" as="geometry" />
        </mxCell>
        <mxCell id="KgsEIfaGhEiCO7Dnyejm-3" value="PK" style="shape=partialRectangle;connectable=0;fillColor=none;top=0;left=0;bottom=0;right=0;fontStyle=1;overflow=hidden;html=1;whiteSpace=wrap;" parent="KgsEIfaGhEiCO7Dnyejm-2" vertex="1">
          <mxGeometry width="60" height="30" as="geometry">
            <mxRectangle width="60" height="30" as="alternateBounds" />
          </mxGeometry>
        </mxCell>
        <mxCell id="KgsEIfaGhEiCO7Dnyejm-4" value="idDiaAula" style="shape=partialRectangle;connectable=0;fillColor=none;top=0;left=0;bottom=0;right=0;align=left;spacingLeft=6;fontStyle=5;overflow=hidden;html=1;whiteSpace=wrap;" parent="KgsEIfaGhEiCO7Dnyejm-2" vertex="1">
          <mxGeometry x="60" width="120" height="30" as="geometry">
            <mxRectangle width="120" height="30" as="alternateBounds" />
          </mxGeometry>
        </mxCell>
        <mxCell id="KgsEIfaGhEiCO7Dnyejm-8" value="" style="shape=tableRow;horizontal=0;startSize=0;swimlaneHead=0;swimlaneBody=0;fillColor=none;collapsible=0;dropTarget=0;points=[[0,0.5],[1,0.5]];portConstraint=eastwest;top=0;left=0;right=0;bottom=1;html=1;" parent="KgsEIfaGhEiCO7Dnyejm-1" vertex="1">
          <mxGeometry y="60" width="180" height="30" as="geometry" />
        </mxCell>
        <mxCell id="KgsEIfaGhEiCO7Dnyejm-9" value="FK" style="shape=partialRectangle;connectable=0;fillColor=none;top=0;left=0;bottom=0;right=0;fontStyle=1;overflow=hidden;html=1;whiteSpace=wrap;" parent="KgsEIfaGhEiCO7Dnyejm-8" vertex="1">
          <mxGeometry width="60" height="30" as="geometry">
            <mxRectangle width="60" height="30" as="alternateBounds" />
          </mxGeometry>
        </mxCell>
        <mxCell id="KgsEIfaGhEiCO7Dnyejm-10" value="idProfessor" style="shape=partialRectangle;connectable=0;fillColor=none;top=0;left=0;bottom=0;right=0;align=left;spacingLeft=6;fontStyle=5;overflow=hidden;html=1;whiteSpace=wrap;" parent="KgsEIfaGhEiCO7Dnyejm-8" vertex="1">
          <mxGeometry x="60" width="120" height="30" as="geometry">
            <mxRectangle width="120" height="30" as="alternateBounds" />
          </mxGeometry>
        </mxCell>
        <mxCell id="KgsEIfaGhEiCO7Dnyejm-14" value="" style="shape=tableRow;horizontal=0;startSize=0;swimlaneHead=0;swimlaneBody=0;fillColor=none;collapsible=0;dropTarget=0;points=[[0,0.5],[1,0.5]];portConstraint=eastwest;top=0;left=0;right=0;bottom=0;html=1;" parent="KgsEIfaGhEiCO7Dnyejm-1" vertex="1">
          <mxGeometry y="90" width="180" height="30" as="geometry" />
        </mxCell>
        <mxCell id="KgsEIfaGhEiCO7Dnyejm-15" value="" style="shape=partialRectangle;connectable=0;fillColor=none;top=0;left=0;bottom=0;right=0;editable=1;overflow=hidden;html=1;whiteSpace=wrap;" parent="KgsEIfaGhEiCO7Dnyejm-14" vertex="1">
          <mxGeometry width="60" height="30" as="geometry">
            <mxRectangle width="60" height="30" as="alternateBounds" />
          </mxGeometry>
        </mxCell>
        <mxCell id="KgsEIfaGhEiCO7Dnyejm-16" value="diaSemana" style="shape=partialRectangle;connectable=0;fillColor=none;top=0;left=0;bottom=0;right=0;align=left;spacingLeft=6;overflow=hidden;html=1;whiteSpace=wrap;" parent="KgsEIfaGhEiCO7Dnyejm-14" vertex="1">
          <mxGeometry x="60" width="120" height="30" as="geometry">
            <mxRectangle width="120" height="30" as="alternateBounds" />
          </mxGeometry>
        </mxCell>
        <mxCell id="KgsEIfaGhEiCO7Dnyejm-17" value="HORARIO-AULA" style="shape=table;startSize=30;container=1;collapsible=1;childLayout=tableLayout;fixedRows=1;rowLines=0;fontStyle=1;align=center;resizeLast=1;html=1;whiteSpace=wrap;fillColor=#f8cecc;strokeColor=#b85450;" parent="1" vertex="1">
          <mxGeometry x="580" y="110" width="180" height="180" as="geometry" />
        </mxCell>
        <mxCell id="KgsEIfaGhEiCO7Dnyejm-18" value="" style="shape=tableRow;horizontal=0;startSize=0;swimlaneHead=0;swimlaneBody=0;fillColor=none;collapsible=0;dropTarget=0;points=[[0,0.5],[1,0.5]];portConstraint=eastwest;top=0;left=0;right=0;bottom=0;html=1;" parent="KgsEIfaGhEiCO7Dnyejm-17" vertex="1">
          <mxGeometry y="30" width="180" height="30" as="geometry" />
        </mxCell>
        <mxCell id="KgsEIfaGhEiCO7Dnyejm-19" value="PK" style="shape=partialRectangle;connectable=0;fillColor=none;top=0;left=0;bottom=0;right=0;fontStyle=1;overflow=hidden;html=1;whiteSpace=wrap;" parent="KgsEIfaGhEiCO7Dnyejm-18" vertex="1">
          <mxGeometry width="60" height="30" as="geometry">
            <mxRectangle width="60" height="30" as="alternateBounds" />
          </mxGeometry>
        </mxCell>
        <mxCell id="KgsEIfaGhEiCO7Dnyejm-20" value="idHorarioAula" style="shape=partialRectangle;connectable=0;fillColor=none;top=0;left=0;bottom=0;right=0;align=left;spacingLeft=6;fontStyle=5;overflow=hidden;html=1;whiteSpace=wrap;" parent="KgsEIfaGhEiCO7Dnyejm-18" vertex="1">
          <mxGeometry x="60" width="120" height="30" as="geometry">
            <mxRectangle width="120" height="30" as="alternateBounds" />
          </mxGeometry>
        </mxCell>
        <mxCell id="KgsEIfaGhEiCO7Dnyejm-21" value="" style="shape=tableRow;horizontal=0;startSize=0;swimlaneHead=0;swimlaneBody=0;fillColor=none;collapsible=0;dropTarget=0;points=[[0,0.5],[1,0.5]];portConstraint=eastwest;top=0;left=0;right=0;bottom=0;html=1;" parent="KgsEIfaGhEiCO7Dnyejm-17" vertex="1">
          <mxGeometry y="60" width="180" height="30" as="geometry" />
        </mxCell>
        <mxCell id="KgsEIfaGhEiCO7Dnyejm-22" value="FK" style="shape=partialRectangle;connectable=0;fillColor=none;top=0;left=0;bottom=0;right=0;fontStyle=1;overflow=hidden;html=1;whiteSpace=wrap;" parent="KgsEIfaGhEiCO7Dnyejm-21" vertex="1">
          <mxGeometry width="60" height="30" as="geometry">
            <mxRectangle width="60" height="30" as="alternateBounds" />
          </mxGeometry>
        </mxCell>
        <mxCell id="KgsEIfaGhEiCO7Dnyejm-23" value="idProfessor" style="shape=partialRectangle;connectable=0;fillColor=none;top=0;left=0;bottom=0;right=0;align=left;spacingLeft=6;fontStyle=5;overflow=hidden;html=1;whiteSpace=wrap;" parent="KgsEIfaGhEiCO7Dnyejm-21" vertex="1">
          <mxGeometry x="60" width="120" height="30" as="geometry">
            <mxRectangle width="120" height="30" as="alternateBounds" />
          </mxGeometry>
        </mxCell>
        <mxCell id="KgsEIfaGhEiCO7Dnyejm-24" value="" style="shape=tableRow;horizontal=0;startSize=0;swimlaneHead=0;swimlaneBody=0;fillColor=none;collapsible=0;dropTarget=0;points=[[0,0.5],[1,0.5]];portConstraint=eastwest;top=0;left=0;right=0;bottom=1;html=1;" parent="KgsEIfaGhEiCO7Dnyejm-17" vertex="1">
          <mxGeometry y="90" width="180" height="30" as="geometry" />
        </mxCell>
        <mxCell id="KgsEIfaGhEiCO7Dnyejm-25" value="FK" style="shape=partialRectangle;connectable=0;fillColor=none;top=0;left=0;bottom=0;right=0;fontStyle=1;overflow=hidden;html=1;whiteSpace=wrap;" parent="KgsEIfaGhEiCO7Dnyejm-24" vertex="1">
          <mxGeometry width="60" height="30" as="geometry">
            <mxRectangle width="60" height="30" as="alternateBounds" />
          </mxGeometry>
        </mxCell>
        <mxCell id="KgsEIfaGhEiCO7Dnyejm-26" value="idDiaAula " style="shape=partialRectangle;connectable=0;fillColor=none;top=0;left=0;bottom=0;right=0;align=left;spacingLeft=6;fontStyle=5;overflow=hidden;html=1;whiteSpace=wrap;" parent="KgsEIfaGhEiCO7Dnyejm-24" vertex="1">
          <mxGeometry x="60" width="120" height="30" as="geometry">
            <mxRectangle width="120" height="30" as="alternateBounds" />
          </mxGeometry>
        </mxCell>
        <mxCell id="KgsEIfaGhEiCO7Dnyejm-27" value="" style="shape=tableRow;horizontal=0;startSize=0;swimlaneHead=0;swimlaneBody=0;fillColor=none;collapsible=0;dropTarget=0;points=[[0,0.5],[1,0.5]];portConstraint=eastwest;top=0;left=0;right=0;bottom=0;html=1;" parent="KgsEIfaGhEiCO7Dnyejm-17" vertex="1">
          <mxGeometry y="120" width="180" height="30" as="geometry" />
        </mxCell>
        <mxCell id="KgsEIfaGhEiCO7Dnyejm-28" value="" style="shape=partialRectangle;connectable=0;fillColor=none;top=0;left=0;bottom=0;right=0;editable=1;overflow=hidden;html=1;whiteSpace=wrap;" parent="KgsEIfaGhEiCO7Dnyejm-27" vertex="1">
          <mxGeometry width="60" height="30" as="geometry">
            <mxRectangle width="60" height="30" as="alternateBounds" />
          </mxGeometry>
        </mxCell>
        <mxCell id="KgsEIfaGhEiCO7Dnyejm-29" value="entrada" style="shape=partialRectangle;connectable=0;fillColor=none;top=0;left=0;bottom=0;right=0;align=left;spacingLeft=6;overflow=hidden;html=1;whiteSpace=wrap;" parent="KgsEIfaGhEiCO7Dnyejm-27" vertex="1">
          <mxGeometry x="60" width="120" height="30" as="geometry">
            <mxRectangle width="120" height="30" as="alternateBounds" />
          </mxGeometry>
        </mxCell>
        <mxCell id="KgsEIfaGhEiCO7Dnyejm-30" value="" style="shape=tableRow;horizontal=0;startSize=0;swimlaneHead=0;swimlaneBody=0;fillColor=none;collapsible=0;dropTarget=0;points=[[0,0.5],[1,0.5]];portConstraint=eastwest;top=0;left=0;right=0;bottom=0;html=1;" parent="KgsEIfaGhEiCO7Dnyejm-17" vertex="1">
          <mxGeometry y="150" width="180" height="30" as="geometry" />
        </mxCell>
        <mxCell id="KgsEIfaGhEiCO7Dnyejm-31" value="" style="shape=partialRectangle;connectable=0;fillColor=none;top=0;left=0;bottom=0;right=0;editable=1;overflow=hidden;html=1;whiteSpace=wrap;" parent="KgsEIfaGhEiCO7Dnyejm-30" vertex="1">
          <mxGeometry width="60" height="30" as="geometry">
            <mxRectangle width="60" height="30" as="alternateBounds" />
          </mxGeometry>
        </mxCell>
        <mxCell id="KgsEIfaGhEiCO7Dnyejm-32" value="saida" style="shape=partialRectangle;connectable=0;fillColor=none;top=0;left=0;bottom=0;right=0;align=left;spacingLeft=6;overflow=hidden;html=1;whiteSpace=wrap;" parent="KgsEIfaGhEiCO7Dnyejm-30" vertex="1">
          <mxGeometry x="60" width="120" height="30" as="geometry">
            <mxRectangle width="120" height="30" as="alternateBounds" />
          </mxGeometry>
        </mxCell>
        <mxCell id="KgsEIfaGhEiCO7Dnyejm-33" value="" style="edgeStyle=orthogonalEdgeStyle;fontSize=12;html=1;endArrow=ERoneToMany;rounded=0;" parent="1" source="kmYilYqnJgTo9celBA7s-82" target="KgsEIfaGhEiCO7Dnyejm-8" edge="1">
          <mxGeometry width="100" height="100" relative="1" as="geometry">
            <mxPoint x="269.0000000000002" y="278" as="sourcePoint" />
            <mxPoint x="419" y="268" as="targetPoint" />
          </mxGeometry>
        </mxCell>
        <mxCell id="KgsEIfaGhEiCO7Dnyejm-34" value="" style="edgeStyle=orthogonalEdgeStyle;fontSize=12;html=1;endArrow=ERmany;rounded=0;" parent="1" source="kmYilYqnJgTo9celBA7s-82" target="KgsEIfaGhEiCO7Dnyejm-21" edge="1">
          <mxGeometry width="100" height="100" relative="1" as="geometry">
            <mxPoint x="269.0000000000002" y="278" as="sourcePoint" />
            <mxPoint x="359" y="283" as="targetPoint" />
          </mxGeometry>
        </mxCell>
        <mxCell id="KgsEIfaGhEiCO7Dnyejm-35" value="" style="edgeStyle=entityRelationEdgeStyle;fontSize=12;html=1;endArrow=ERmany;startArrow=ERmany;rounded=0;" parent="1" source="KgsEIfaGhEiCO7Dnyejm-24" target="KgsEIfaGhEiCO7Dnyejm-2" edge="1">
          <mxGeometry width="100" height="100" relative="1" as="geometry">
            <mxPoint x="480" y="240" as="sourcePoint" />
            <mxPoint x="580" y="140" as="targetPoint" />
          </mxGeometry>
        </mxCell>
        <mxCell id="kmYilYqnJgTo9celBA7s-1" value="TRABALHO" style="shape=table;startSize=30;container=1;collapsible=1;childLayout=tableLayout;fixedRows=1;rowLines=0;fontStyle=1;align=center;resizeLast=1;html=1;whiteSpace=wrap;fillColor=#f8cecc;strokeColor=#b85450;" parent="1" vertex="1">
          <mxGeometry x="-260" y="340" width="180" height="180" as="geometry" />
        </mxCell>
        <mxCell id="kmYilYqnJgTo9celBA7s-2" value="" style="shape=tableRow;horizontal=0;startSize=0;swimlaneHead=0;swimlaneBody=0;fillColor=none;collapsible=0;dropTarget=0;points=[[0,0.5],[1,0.5]];portConstraint=eastwest;top=0;left=0;right=0;bottom=0;html=1;" parent="kmYilYqnJgTo9celBA7s-1" vertex="1">
          <mxGeometry y="30" width="180" height="30" as="geometry" />
        </mxCell>
        <mxCell id="kmYilYqnJgTo9celBA7s-3" value="PK" style="shape=partialRectangle;connectable=0;fillColor=none;top=0;left=0;bottom=0;right=0;fontStyle=1;overflow=hidden;html=1;whiteSpace=wrap;" parent="kmYilYqnJgTo9celBA7s-2" vertex="1">
          <mxGeometry width="60" height="30" as="geometry">
            <mxRectangle width="60" height="30" as="alternateBounds" />
          </mxGeometry>
        </mxCell>
        <mxCell id="kmYilYqnJgTo9celBA7s-4" value="id_trabalho" style="shape=partialRectangle;connectable=0;fillColor=none;top=0;left=0;bottom=0;right=0;align=left;spacingLeft=6;fontStyle=5;overflow=hidden;html=1;whiteSpace=wrap;" parent="kmYilYqnJgTo9celBA7s-2" vertex="1">
          <mxGeometry x="60" width="120" height="30" as="geometry">
            <mxRectangle width="120" height="30" as="alternateBounds" />
          </mxGeometry>
        </mxCell>
        <mxCell id="kmYilYqnJgTo9celBA7s-59" value="" style="shape=tableRow;horizontal=0;startSize=0;swimlaneHead=0;swimlaneBody=0;fillColor=none;collapsible=0;dropTarget=0;points=[[0,0.5],[1,0.5]];portConstraint=eastwest;top=0;left=0;right=0;bottom=0;html=1;" parent="kmYilYqnJgTo9celBA7s-1" vertex="1">
          <mxGeometry y="60" width="180" height="30" as="geometry" />
        </mxCell>
        <mxCell id="kmYilYqnJgTo9celBA7s-60" value="FK" style="shape=partialRectangle;connectable=0;fillColor=none;top=0;left=0;bottom=0;right=0;fontStyle=1;overflow=hidden;html=1;whiteSpace=wrap;" parent="kmYilYqnJgTo9celBA7s-59" vertex="1">
          <mxGeometry width="60" height="30" as="geometry">
            <mxRectangle width="60" height="30" as="alternateBounds" />
          </mxGeometry>
        </mxCell>
        <mxCell id="kmYilYqnJgTo9celBA7s-61" value="id_orientador" style="shape=partialRectangle;connectable=0;fillColor=none;top=0;left=0;bottom=0;right=0;align=left;spacingLeft=6;fontStyle=5;overflow=hidden;html=1;whiteSpace=wrap;" parent="kmYilYqnJgTo9celBA7s-59" vertex="1">
          <mxGeometry x="60" width="120" height="30" as="geometry">
            <mxRectangle width="120" height="30" as="alternateBounds" />
          </mxGeometry>
        </mxCell>
        <mxCell id="kmYilYqnJgTo9celBA7s-47" value="" style="shape=tableRow;horizontal=0;startSize=0;swimlaneHead=0;swimlaneBody=0;fillColor=none;collapsible=0;dropTarget=0;points=[[0,0.5],[1,0.5]];portConstraint=eastwest;top=0;left=0;right=0;bottom=0;html=1;" parent="kmYilYqnJgTo9celBA7s-1" vertex="1">
          <mxGeometry y="90" width="180" height="30" as="geometry" />
        </mxCell>
        <mxCell id="kmYilYqnJgTo9celBA7s-48" value="FK" style="shape=partialRectangle;connectable=0;fillColor=none;top=0;left=0;bottom=0;right=0;fontStyle=1;overflow=hidden;html=1;whiteSpace=wrap;" parent="kmYilYqnJgTo9celBA7s-47" vertex="1">
          <mxGeometry width="60" height="30" as="geometry">
            <mxRectangle width="60" height="30" as="alternateBounds" />
          </mxGeometry>
        </mxCell>
        <mxCell id="kmYilYqnJgTo9celBA7s-49" value="id_tema" style="shape=partialRectangle;connectable=0;fillColor=none;top=0;left=0;bottom=0;right=0;align=left;spacingLeft=6;fontStyle=5;overflow=hidden;html=1;whiteSpace=wrap;" parent="kmYilYqnJgTo9celBA7s-47" vertex="1">
          <mxGeometry x="60" width="120" height="30" as="geometry">
            <mxRectangle width="120" height="30" as="alternateBounds" />
          </mxGeometry>
        </mxCell>
        <mxCell id="kmYilYqnJgTo9celBA7s-11" value="" style="shape=tableRow;horizontal=0;startSize=0;swimlaneHead=0;swimlaneBody=0;fillColor=none;collapsible=0;dropTarget=0;points=[[0,0.5],[1,0.5]];portConstraint=eastwest;top=0;left=0;right=0;bottom=0;html=1;" parent="kmYilYqnJgTo9celBA7s-1" vertex="1">
          <mxGeometry y="120" width="180" height="30" as="geometry" />
        </mxCell>
        <mxCell id="kmYilYqnJgTo9celBA7s-12" value="" style="shape=partialRectangle;connectable=0;fillColor=none;top=0;left=0;bottom=0;right=0;editable=1;overflow=hidden;html=1;whiteSpace=wrap;" parent="kmYilYqnJgTo9celBA7s-11" vertex="1">
          <mxGeometry width="60" height="30" as="geometry">
            <mxRectangle width="60" height="30" as="alternateBounds" />
          </mxGeometry>
        </mxCell>
        <mxCell id="kmYilYqnJgTo9celBA7s-13" value="nota_final" style="shape=partialRectangle;connectable=0;fillColor=none;top=0;left=0;bottom=0;right=0;align=left;spacingLeft=6;overflow=hidden;html=1;whiteSpace=wrap;" parent="kmYilYqnJgTo9celBA7s-11" vertex="1">
          <mxGeometry x="60" width="120" height="30" as="geometry">
            <mxRectangle width="120" height="30" as="alternateBounds" />
          </mxGeometry>
        </mxCell>
        <mxCell id="kmYilYqnJgTo9celBA7s-121" value="" style="shape=tableRow;horizontal=0;startSize=0;swimlaneHead=0;swimlaneBody=0;fillColor=none;collapsible=0;dropTarget=0;points=[[0,0.5],[1,0.5]];portConstraint=eastwest;top=0;left=0;right=0;bottom=0;html=1;" parent="kmYilYqnJgTo9celBA7s-1" vertex="1">
          <mxGeometry y="150" width="180" height="30" as="geometry" />
        </mxCell>
        <mxCell id="kmYilYqnJgTo9celBA7s-122" value="" style="shape=partialRectangle;connectable=0;fillColor=none;top=0;left=0;bottom=0;right=0;editable=1;overflow=hidden;html=1;whiteSpace=wrap;" parent="kmYilYqnJgTo9celBA7s-121" vertex="1">
          <mxGeometry width="60" height="30" as="geometry">
            <mxRectangle width="60" height="30" as="alternateBounds" />
          </mxGeometry>
        </mxCell>
        <mxCell id="kmYilYqnJgTo9celBA7s-123" value="previsao_defesa" style="shape=partialRectangle;connectable=0;fillColor=none;top=0;left=0;bottom=0;right=0;align=left;spacingLeft=6;overflow=hidden;html=1;whiteSpace=wrap;" parent="kmYilYqnJgTo9celBA7s-121" vertex="1">
          <mxGeometry x="60" width="120" height="30" as="geometry">
            <mxRectangle width="120" height="30" as="alternateBounds" />
          </mxGeometry>
        </mxCell>
        <mxCell id="kmYilYqnJgTo9celBA7s-68" value="" style="edgeStyle=orthogonalEdgeStyle;fontSize=12;html=1;endArrow=ERoneToMany;rounded=0;" parent="1" source="DAVtMT2fN0Toa0u_V9ZZ-63" target="kmYilYqnJgTo9celBA7s-65" edge="1">
          <mxGeometry width="100" height="100" relative="1" as="geometry">
            <mxPoint x="329" y="305" as="sourcePoint" />
            <mxPoint x="110" y="259" as="targetPoint" />
          </mxGeometry>
        </mxCell>
        <mxCell id="kmYilYqnJgTo9celBA7s-74" value="" style="edgeStyle=orthogonalEdgeStyle;fontSize=12;html=1;endArrow=ERmandOne;startArrow=ERmandOne;rounded=0;" parent="1" source="kmYilYqnJgTo9celBA7s-47" target="1YhN6j1r-1prUdyuXXBl-8" edge="1">
          <mxGeometry width="100" height="100" relative="1" as="geometry">
            <mxPoint x="20" y="530" as="sourcePoint" />
            <mxPoint x="120" y="430" as="targetPoint" />
            <Array as="points">
              <mxPoint x="30" y="445" />
              <mxPoint x="30" y="225" />
            </Array>
          </mxGeometry>
        </mxCell>
        <mxCell id="kmYilYqnJgTo9celBA7s-75" value="" style="edgeStyle=orthogonalEdgeStyle;fontSize=12;html=1;endArrow=ERoneToMany;rounded=0;" parent="1" source="kmYilYqnJgTo9celBA7s-82" target="kmYilYqnJgTo9celBA7s-59" edge="1">
          <mxGeometry width="100" height="100" relative="1" as="geometry">
            <mxPoint x="60" y="278" as="sourcePoint" />
            <mxPoint x="90" y="400" as="targetPoint" />
            <Array as="points">
              <mxPoint x="290" y="25" />
              <mxPoint x="290" y="145" />
              <mxPoint x="-50" y="145" />
              <mxPoint x="-50" y="415" />
            </Array>
          </mxGeometry>
        </mxCell>
        <mxCell id="kmYilYqnJgTo9celBA7s-97" value="" style="edgeStyle=orthogonalEdgeStyle;fontSize=12;html=1;endArrow=ERoneToMany;rounded=0;" parent="1" source="kmYilYqnJgTo9celBA7s-2" target="1YhN6j1r-1prUdyuXXBl-113" edge="1">
          <mxGeometry width="100" height="100" relative="1" as="geometry">
            <mxPoint x="70" y="240" as="sourcePoint" />
            <mxPoint x="170" y="140" as="targetPoint" />
            <Array as="points">
              <mxPoint x="-290" y="385" />
              <mxPoint x="-290" y="225" />
            </Array>
          </mxGeometry>
        </mxCell>
        <mxCell id="kmYilYqnJgTo9celBA7s-98" value="" style="edgeStyle=orthogonalEdgeStyle;fontSize=12;html=1;endArrow=ERoneToMany;rounded=0;" parent="1" source="kmYilYqnJgTo9celBA7s-82" target="kmYilYqnJgTo9celBA7s-79" edge="1">
          <mxGeometry width="100" height="100" relative="1" as="geometry">
            <mxPoint x="70" y="240" as="sourcePoint" />
            <mxPoint x="170" y="140" as="targetPoint" />
            <Array as="points">
              <mxPoint x="290" y="25" />
              <mxPoint x="290" y="145" />
              <mxPoint x="-50" y="145" />
              <mxPoint x="-50" y="195" />
            </Array>
          </mxGeometry>
        </mxCell>
        <mxCell id="kmYilYqnJgTo9celBA7s-101" value="" style="edgeStyle=orthogonalEdgeStyle;fontSize=12;html=1;endArrow=ERmandOne;startArrow=ERmandOne;rounded=0;" parent="1" source="1YhN6j1r-1prUdyuXXBl-68" target="kmYilYqnJgTo9celBA7s-102" edge="1">
          <mxGeometry width="100" height="100" relative="1" as="geometry">
            <mxPoint x="70" y="70" as="sourcePoint" />
            <mxPoint x="60" y="-105" as="targetPoint" />
          </mxGeometry>
        </mxCell>
        <mxCell id="kmYilYqnJgTo9celBA7s-120" value="" style="group" parent="1" vertex="1" connectable="0">
          <mxGeometry x="350" y="-190" width="300" height="98" as="geometry" />
        </mxCell>
        <mxCell id="kmYilYqnJgTo9celBA7s-107" value="" style="rounded=1;whiteSpace=wrap;html=1;fillColor=#d5e8d4;strokeColor=#82b366;" parent="kmYilYqnJgTo9celBA7s-120" vertex="1">
          <mxGeometry x="14" y="48" width="30" height="24" as="geometry" />
        </mxCell>
        <mxCell id="kmYilYqnJgTo9celBA7s-108" value="" style="rounded=1;whiteSpace=wrap;html=1;fillColor=#ffe6cc;strokeColor=#d79b00;" parent="kmYilYqnJgTo9celBA7s-120" vertex="1">
          <mxGeometry x="75" y="48" width="30" height="24" as="geometry" />
        </mxCell>
        <mxCell id="kmYilYqnJgTo9celBA7s-115" style="edgeStyle=orthogonalEdgeStyle;rounded=0;orthogonalLoop=1;jettySize=auto;html=1;entryX=0;entryY=0.5;entryDx=0;entryDy=0;" parent="kmYilYqnJgTo9celBA7s-120" source="kmYilYqnJgTo9celBA7s-107" target="kmYilYqnJgTo9celBA7s-108" edge="1">
          <mxGeometry relative="1" as="geometry" />
        </mxCell>
        <mxCell id="kmYilYqnJgTo9celBA7s-109" value="" style="rounded=1;whiteSpace=wrap;html=1;fillColor=#f8cecc;strokeColor=#b85450;" parent="kmYilYqnJgTo9celBA7s-120" vertex="1">
          <mxGeometry x="135" y="48" width="30" height="24" as="geometry" />
        </mxCell>
        <mxCell id="kmYilYqnJgTo9celBA7s-116" style="edgeStyle=orthogonalEdgeStyle;rounded=0;orthogonalLoop=1;jettySize=auto;html=1;entryX=0;entryY=0.5;entryDx=0;entryDy=0;" parent="kmYilYqnJgTo9celBA7s-120" source="kmYilYqnJgTo9celBA7s-108" target="kmYilYqnJgTo9celBA7s-109" edge="1">
          <mxGeometry relative="1" as="geometry" />
        </mxCell>
        <mxCell id="kmYilYqnJgTo9celBA7s-110" value="" style="rounded=1;whiteSpace=wrap;html=1;fillColor=#e1d5e7;strokeColor=#9673a6;" parent="kmYilYqnJgTo9celBA7s-120" vertex="1">
          <mxGeometry x="195" y="48" width="30" height="24" as="geometry" />
        </mxCell>
        <mxCell id="kmYilYqnJgTo9celBA7s-117" style="edgeStyle=orthogonalEdgeStyle;rounded=0;orthogonalLoop=1;jettySize=auto;html=1;entryX=0;entryY=0.5;entryDx=0;entryDy=0;" parent="kmYilYqnJgTo9celBA7s-120" source="kmYilYqnJgTo9celBA7s-109" target="kmYilYqnJgTo9celBA7s-110" edge="1">
          <mxGeometry relative="1" as="geometry" />
        </mxCell>
        <mxCell id="kmYilYqnJgTo9celBA7s-111" value="" style="rounded=1;whiteSpace=wrap;html=1;fillColor=#dae8fc;strokeColor=#6c8ebf;" parent="kmYilYqnJgTo9celBA7s-120" vertex="1">
          <mxGeometry x="255" y="48" width="30" height="24" as="geometry" />
        </mxCell>
        <mxCell id="kmYilYqnJgTo9celBA7s-118" style="edgeStyle=orthogonalEdgeStyle;rounded=0;orthogonalLoop=1;jettySize=auto;html=1;entryX=0;entryY=0.5;entryDx=0;entryDy=0;" parent="kmYilYqnJgTo9celBA7s-120" source="kmYilYqnJgTo9celBA7s-110" target="kmYilYqnJgTo9celBA7s-111" edge="1">
          <mxGeometry relative="1" as="geometry" />
        </mxCell>
        <mxCell id="kmYilYqnJgTo9celBA7s-112" value="DependÃªncias entre as entidades" style="text;html=1;strokeColor=none;fillColor=none;align=left;verticalAlign=middle;whiteSpace=wrap;rounded=0;" parent="kmYilYqnJgTo9celBA7s-120" vertex="1">
          <mxGeometry x="14" y="8" width="209" height="30" as="geometry" />
        </mxCell>
        <mxCell id="kmYilYqnJgTo9celBA7s-119" value="" style="rounded=0;whiteSpace=wrap;html=1;fillColor=none;" parent="kmYilYqnJgTo9celBA7s-120" vertex="1">
          <mxGeometry width="300" height="98" as="geometry" />
        </mxCell>
        <mxCell id="kmYilYqnJgTo9celBA7s-127" value="" style="edgeStyle=orthogonalEdgeStyle;fontSize=12;html=1;endArrow=ERmandOne;startArrow=ERmandOne;rounded=0;" parent="1" source="kmYilYqnJgTo9celBA7s-2" target="kmYilYqnJgTo9celBA7s-85" edge="1">
          <mxGeometry width="100" height="100" relative="1" as="geometry">
            <mxPoint x="-100" y="240" as="sourcePoint" />
            <mxPoint y="140" as="targetPoint" />
            <Array as="points">
              <mxPoint x="-320" y="385" />
              <mxPoint x="-320" y="5" />
            </Array>
          </mxGeometry>
        </mxCell>
        <mxCell id="DAVtMT2fN0Toa0u_V9ZZ-1" value="GRUPO" style="shape=table;startSize=30;container=1;collapsible=1;childLayout=tableLayout;fixedRows=1;rowLines=0;fontStyle=1;align=center;resizeLast=1;html=1;whiteSpace=wrap;fillColor=#e1d5e7;strokeColor=#9673a6;" parent="1" vertex="1">
          <mxGeometry x="60" y="400" width="180" height="120" as="geometry" />
        </mxCell>
        <mxCell id="DAVtMT2fN0Toa0u_V9ZZ-5" value="" style="shape=tableRow;horizontal=0;startSize=0;swimlaneHead=0;swimlaneBody=0;fillColor=none;collapsible=0;dropTarget=0;points=[[0,0.5],[1,0.5]];portConstraint=eastwest;top=0;left=0;right=0;bottom=0;html=1;" parent="DAVtMT2fN0Toa0u_V9ZZ-1" vertex="1">
          <mxGeometry y="30" width="180" height="30" as="geometry" />
        </mxCell>
        <mxCell id="DAVtMT2fN0Toa0u_V9ZZ-6" value="PK" style="shape=partialRectangle;connectable=0;fillColor=none;top=0;left=0;bottom=0;right=0;editable=1;overflow=hidden;html=1;whiteSpace=wrap;" parent="DAVtMT2fN0Toa0u_V9ZZ-5" vertex="1">
          <mxGeometry width="60" height="30" as="geometry">
            <mxRectangle width="60" height="30" as="alternateBounds" />
          </mxGeometry>
        </mxCell>
        <mxCell id="DAVtMT2fN0Toa0u_V9ZZ-7" value="id_grupo" style="shape=partialRectangle;connectable=0;fillColor=none;top=0;left=0;bottom=0;right=0;align=left;spacingLeft=6;overflow=hidden;html=1;whiteSpace=wrap;" parent="DAVtMT2fN0Toa0u_V9ZZ-5" vertex="1">
          <mxGeometry x="60" width="120" height="30" as="geometry">
            <mxRectangle width="120" height="30" as="alternateBounds" />
          </mxGeometry>
        </mxCell>
        <mxCell id="DAVtMT2fN0Toa0u_V9ZZ-8" value="" style="shape=tableRow;horizontal=0;startSize=0;swimlaneHead=0;swimlaneBody=0;fillColor=none;collapsible=0;dropTarget=0;points=[[0,0.5],[1,0.5]];portConstraint=eastwest;top=0;left=0;right=0;bottom=0;html=1;" parent="DAVtMT2fN0Toa0u_V9ZZ-1" vertex="1">
          <mxGeometry y="60" width="180" height="30" as="geometry" />
        </mxCell>
        <mxCell id="DAVtMT2fN0Toa0u_V9ZZ-9" value="FK" style="shape=partialRectangle;connectable=0;fillColor=none;top=0;left=0;bottom=0;right=0;editable=1;overflow=hidden;html=1;whiteSpace=wrap;" parent="DAVtMT2fN0Toa0u_V9ZZ-8" vertex="1">
          <mxGeometry width="60" height="30" as="geometry">
            <mxRectangle width="60" height="30" as="alternateBounds" />
          </mxGeometry>
        </mxCell>
        <mxCell id="DAVtMT2fN0Toa0u_V9ZZ-10" value="id_aluno" style="shape=partialRectangle;connectable=0;fillColor=none;top=0;left=0;bottom=0;right=0;align=left;spacingLeft=6;overflow=hidden;html=1;whiteSpace=wrap;" parent="DAVtMT2fN0Toa0u_V9ZZ-8" vertex="1">
          <mxGeometry x="60" width="120" height="30" as="geometry">
            <mxRectangle width="120" height="30" as="alternateBounds" />
          </mxGeometry>
        </mxCell>
        <mxCell id="DAVtMT2fN0Toa0u_V9ZZ-11" value="" style="shape=tableRow;horizontal=0;startSize=0;swimlaneHead=0;swimlaneBody=0;fillColor=none;collapsible=0;dropTarget=0;points=[[0,0.5],[1,0.5]];portConstraint=eastwest;top=0;left=0;right=0;bottom=0;html=1;" parent="DAVtMT2fN0Toa0u_V9ZZ-1" vertex="1">
          <mxGeometry y="90" width="180" height="30" as="geometry" />
        </mxCell>
        <mxCell id="DAVtMT2fN0Toa0u_V9ZZ-12" value="FK" style="shape=partialRectangle;connectable=0;fillColor=none;top=0;left=0;bottom=0;right=0;editable=1;overflow=hidden;html=1;whiteSpace=wrap;" parent="DAVtMT2fN0Toa0u_V9ZZ-11" vertex="1">
          <mxGeometry width="60" height="30" as="geometry">
            <mxRectangle width="60" height="30" as="alternateBounds" />
          </mxGeometry>
        </mxCell>
        <mxCell id="DAVtMT2fN0Toa0u_V9ZZ-13" value="id_trabalho" style="shape=partialRectangle;connectable=0;fillColor=none;top=0;left=0;bottom=0;right=0;align=left;spacingLeft=6;overflow=hidden;html=1;whiteSpace=wrap;" parent="DAVtMT2fN0Toa0u_V9ZZ-11" vertex="1">
          <mxGeometry x="60" width="120" height="30" as="geometry">
            <mxRectangle width="120" height="30" as="alternateBounds" />
          </mxGeometry>
        </mxCell>
        <mxCell id="DAVtMT2fN0Toa0u_V9ZZ-20" value="" style="edgeStyle=orthogonalEdgeStyle;fontSize=12;html=1;endArrow=ERmany;startArrow=ERmany;rounded=0;" parent="1" source="DAVtMT2fN0Toa0u_V9ZZ-8" target="DAVtMT2fN0Toa0u_V9ZZ-63" edge="1">
          <mxGeometry width="100" height="100" relative="1" as="geometry">
            <mxPoint x="-250" y="710" as="sourcePoint" />
            <mxPoint x="329" y="305" as="targetPoint" />
          </mxGeometry>
        </mxCell>
        <mxCell id="DAVtMT2fN0Toa0u_V9ZZ-22" value="" style="edgeStyle=orthogonalEdgeStyle;fontSize=12;html=1;endArrow=ERmany;startArrow=ERmany;rounded=0;" parent="1" source="DAVtMT2fN0Toa0u_V9ZZ-11" target="kmYilYqnJgTo9celBA7s-2" edge="1">
          <mxGeometry width="100" height="100" relative="1" as="geometry">
            <mxPoint x="200" y="380" as="sourcePoint" />
            <mxPoint x="300" y="280" as="targetPoint" />
            <Array as="points">
              <mxPoint x="30" y="505" />
              <mxPoint x="30" y="560" />
              <mxPoint x="-290" y="560" />
              <mxPoint x="-290" y="385" />
            </Array>
          </mxGeometry>
        </mxCell>
        <mxCell id="DAVtMT2fN0Toa0u_V9ZZ-23" value="CONVIDADO" style="shape=table;startSize=30;container=1;collapsible=1;childLayout=tableLayout;fixedRows=1;rowLines=0;fontStyle=1;align=center;resizeLast=1;html=1;whiteSpace=wrap;fillColor=#dae8fc;strokeColor=#6c8ebf;" parent="1" vertex="1">
          <mxGeometry x="60" y="-20" width="180" height="120" as="geometry" />
        </mxCell>
        <mxCell id="DAVtMT2fN0Toa0u_V9ZZ-24" value="" style="shape=tableRow;horizontal=0;startSize=0;swimlaneHead=0;swimlaneBody=0;fillColor=none;collapsible=0;dropTarget=0;points=[[0,0.5],[1,0.5]];portConstraint=eastwest;top=0;left=0;right=0;bottom=0;html=1;" parent="DAVtMT2fN0Toa0u_V9ZZ-23" vertex="1">
          <mxGeometry y="30" width="180" height="30" as="geometry" />
        </mxCell>
        <mxCell id="DAVtMT2fN0Toa0u_V9ZZ-25" value="PK" style="shape=partialRectangle;connectable=0;fillColor=none;top=0;left=0;bottom=0;right=0;editable=1;overflow=hidden;html=1;whiteSpace=wrap;" parent="DAVtMT2fN0Toa0u_V9ZZ-24" vertex="1">
          <mxGeometry width="60" height="30" as="geometry">
            <mxRectangle width="60" height="30" as="alternateBounds" />
          </mxGeometry>
        </mxCell>
        <mxCell id="DAVtMT2fN0Toa0u_V9ZZ-26" value="id_convidado" style="shape=partialRectangle;connectable=0;fillColor=none;top=0;left=0;bottom=0;right=0;align=left;spacingLeft=6;overflow=hidden;html=1;whiteSpace=wrap;" parent="DAVtMT2fN0Toa0u_V9ZZ-24" vertex="1">
          <mxGeometry x="60" width="120" height="30" as="geometry">
            <mxRectangle width="120" height="30" as="alternateBounds" />
          </mxGeometry>
        </mxCell>
        <mxCell id="DAVtMT2fN0Toa0u_V9ZZ-27" value="" style="shape=tableRow;horizontal=0;startSize=0;swimlaneHead=0;swimlaneBody=0;fillColor=none;collapsible=0;dropTarget=0;points=[[0,0.5],[1,0.5]];portConstraint=eastwest;top=0;left=0;right=0;bottom=0;html=1;" parent="DAVtMT2fN0Toa0u_V9ZZ-23" vertex="1">
          <mxGeometry y="60" width="180" height="30" as="geometry" />
        </mxCell>
        <mxCell id="DAVtMT2fN0Toa0u_V9ZZ-28" value="FK" style="shape=partialRectangle;connectable=0;fillColor=none;top=0;left=0;bottom=0;right=0;editable=1;overflow=hidden;html=1;whiteSpace=wrap;" parent="DAVtMT2fN0Toa0u_V9ZZ-27" vertex="1">
          <mxGeometry width="60" height="30" as="geometry">
            <mxRectangle width="60" height="30" as="alternateBounds" />
          </mxGeometry>
        </mxCell>
        <mxCell id="DAVtMT2fN0Toa0u_V9ZZ-29" value="id_professor" style="shape=partialRectangle;connectable=0;fillColor=none;top=0;left=0;bottom=0;right=0;align=left;spacingLeft=6;overflow=hidden;html=1;whiteSpace=wrap;" parent="DAVtMT2fN0Toa0u_V9ZZ-27" vertex="1">
          <mxGeometry x="60" width="120" height="30" as="geometry">
            <mxRectangle width="120" height="30" as="alternateBounds" />
          </mxGeometry>
        </mxCell>
        <mxCell id="DAVtMT2fN0Toa0u_V9ZZ-30" value="" style="shape=tableRow;horizontal=0;startSize=0;swimlaneHead=0;swimlaneBody=0;fillColor=none;collapsible=0;dropTarget=0;points=[[0,0.5],[1,0.5]];portConstraint=eastwest;top=0;left=0;right=0;bottom=0;html=1;" parent="DAVtMT2fN0Toa0u_V9ZZ-23" vertex="1">
          <mxGeometry y="90" width="180" height="30" as="geometry" />
        </mxCell>
        <mxCell id="DAVtMT2fN0Toa0u_V9ZZ-31" value="FK" style="shape=partialRectangle;connectable=0;fillColor=none;top=0;left=0;bottom=0;right=0;editable=1;overflow=hidden;html=1;whiteSpace=wrap;" parent="DAVtMT2fN0Toa0u_V9ZZ-30" vertex="1">
          <mxGeometry width="60" height="30" as="geometry">
            <mxRectangle width="60" height="30" as="alternateBounds" />
          </mxGeometry>
        </mxCell>
        <mxCell id="DAVtMT2fN0Toa0u_V9ZZ-32" value="id_banca" style="shape=partialRectangle;connectable=0;fillColor=none;top=0;left=0;bottom=0;right=0;align=left;spacingLeft=6;overflow=hidden;html=1;whiteSpace=wrap;" parent="DAVtMT2fN0Toa0u_V9ZZ-30" vertex="1">
          <mxGeometry x="60" width="120" height="30" as="geometry">
            <mxRectangle width="120" height="30" as="alternateBounds" />
          </mxGeometry>
        </mxCell>
        <mxCell id="DAVtMT2fN0Toa0u_V9ZZ-33" value="" style="edgeStyle=orthogonalEdgeStyle;fontSize=12;html=1;endArrow=ERmany;startArrow=ERmany;rounded=0;" parent="1" source="1YhN6j1r-1prUdyuXXBl-68" target="DAVtMT2fN0Toa0u_V9ZZ-30" edge="1">
          <mxGeometry width="100" height="100" relative="1" as="geometry">
            <mxPoint x="200" y="200" as="sourcePoint" />
            <mxPoint x="300" y="100" as="targetPoint" />
          </mxGeometry>
        </mxCell>
        <mxCell id="DAVtMT2fN0Toa0u_V9ZZ-35" value="" style="edgeStyle=orthogonalEdgeStyle;fontSize=12;html=1;endArrow=ERmany;rounded=0;" parent="1" source="kmYilYqnJgTo9celBA7s-82" target="DAVtMT2fN0Toa0u_V9ZZ-27" edge="1">
          <mxGeometry width="100" height="100" relative="1" as="geometry">
            <mxPoint x="200" y="200" as="sourcePoint" />
            <mxPoint x="300" y="100" as="targetPoint" />
            <Array as="points">
              <mxPoint x="290" y="25" />
              <mxPoint x="290" y="55" />
            </Array>
          </mxGeometry>
        </mxCell>
        <mxCell id="DAVtMT2fN0Toa0u_V9ZZ-36" value="ATA_ORIENTACAO" style="shape=table;startSize=30;container=1;collapsible=1;childLayout=tableLayout;fixedRows=1;rowLines=0;fontStyle=1;align=center;resizeLast=1;html=1;whiteSpace=wrap;fillColor=#e1d5e7;strokeColor=#9673a6;" parent="1" vertex="1">
          <mxGeometry x="-540" y="310" width="180" height="210" as="geometry" />
        </mxCell>
        <mxCell id="DAVtMT2fN0Toa0u_V9ZZ-37" value="" style="shape=tableRow;horizontal=0;startSize=0;swimlaneHead=0;swimlaneBody=0;fillColor=none;collapsible=0;dropTarget=0;points=[[0,0.5],[1,0.5]];portConstraint=eastwest;top=0;left=0;right=0;bottom=0;html=1;" parent="DAVtMT2fN0Toa0u_V9ZZ-36" vertex="1">
          <mxGeometry y="30" width="180" height="30" as="geometry" />
        </mxCell>
        <mxCell id="DAVtMT2fN0Toa0u_V9ZZ-38" value="PK" style="shape=partialRectangle;connectable=0;fillColor=none;top=0;left=0;bottom=0;right=0;fontStyle=1;overflow=hidden;html=1;whiteSpace=wrap;" parent="DAVtMT2fN0Toa0u_V9ZZ-37" vertex="1">
          <mxGeometry width="60" height="30" as="geometry">
            <mxRectangle width="60" height="30" as="alternateBounds" />
          </mxGeometry>
        </mxCell>
        <mxCell id="DAVtMT2fN0Toa0u_V9ZZ-39" value="id_ata" style="shape=partialRectangle;connectable=0;fillColor=none;top=0;left=0;bottom=0;right=0;align=left;spacingLeft=6;fontStyle=5;overflow=hidden;html=1;whiteSpace=wrap;" parent="DAVtMT2fN0Toa0u_V9ZZ-37" vertex="1">
          <mxGeometry x="60" width="120" height="30" as="geometry">
            <mxRectangle width="120" height="30" as="alternateBounds" />
          </mxGeometry>
        </mxCell>
        <mxCell id="DAVtMT2fN0Toa0u_V9ZZ-43" value="" style="shape=tableRow;horizontal=0;startSize=0;swimlaneHead=0;swimlaneBody=0;fillColor=none;collapsible=0;dropTarget=0;points=[[0,0.5],[1,0.5]];portConstraint=eastwest;top=0;left=0;right=0;bottom=0;html=1;" parent="DAVtMT2fN0Toa0u_V9ZZ-36" vertex="1">
          <mxGeometry y="60" width="180" height="30" as="geometry" />
        </mxCell>
        <mxCell id="DAVtMT2fN0Toa0u_V9ZZ-44" value="FK" style="shape=partialRectangle;connectable=0;fillColor=none;top=0;left=0;bottom=0;right=0;fontStyle=1;overflow=hidden;html=1;whiteSpace=wrap;" parent="DAVtMT2fN0Toa0u_V9ZZ-43" vertex="1">
          <mxGeometry width="60" height="30" as="geometry">
            <mxRectangle width="60" height="30" as="alternateBounds" />
          </mxGeometry>
        </mxCell>
        <mxCell id="DAVtMT2fN0Toa0u_V9ZZ-45" value="id_trabalho" style="shape=partialRectangle;connectable=0;fillColor=none;top=0;left=0;bottom=0;right=0;align=left;spacingLeft=6;fontStyle=5;overflow=hidden;html=1;whiteSpace=wrap;" parent="DAVtMT2fN0Toa0u_V9ZZ-43" vertex="1">
          <mxGeometry x="60" width="120" height="30" as="geometry">
            <mxRectangle width="120" height="30" as="alternateBounds" />
          </mxGeometry>
        </mxCell>
        <mxCell id="DAVtMT2fN0Toa0u_V9ZZ-46" value="" style="shape=tableRow;horizontal=0;startSize=0;swimlaneHead=0;swimlaneBody=0;fillColor=none;collapsible=0;dropTarget=0;points=[[0,0.5],[1,0.5]];portConstraint=eastwest;top=0;left=0;right=0;bottom=0;html=1;" parent="DAVtMT2fN0Toa0u_V9ZZ-36" vertex="1">
          <mxGeometry y="90" width="180" height="30" as="geometry" />
        </mxCell>
        <mxCell id="DAVtMT2fN0Toa0u_V9ZZ-47" value="" style="shape=partialRectangle;connectable=0;fillColor=none;top=0;left=0;bottom=0;right=0;editable=1;overflow=hidden;html=1;whiteSpace=wrap;" parent="DAVtMT2fN0Toa0u_V9ZZ-46" vertex="1">
          <mxGeometry width="60" height="30" as="geometry">
            <mxRectangle width="60" height="30" as="alternateBounds" />
          </mxGeometry>
        </mxCell>
        <mxCell id="DAVtMT2fN0Toa0u_V9ZZ-48" value="data" style="shape=partialRectangle;connectable=0;fillColor=none;top=0;left=0;bottom=0;right=0;align=left;spacingLeft=6;overflow=hidden;html=1;whiteSpace=wrap;" parent="DAVtMT2fN0Toa0u_V9ZZ-46" vertex="1">
          <mxGeometry x="60" width="120" height="30" as="geometry">
            <mxRectangle width="120" height="30" as="alternateBounds" />
          </mxGeometry>
        </mxCell>
        <mxCell id="DAVtMT2fN0Toa0u_V9ZZ-49" value="" style="shape=tableRow;horizontal=0;startSize=0;swimlaneHead=0;swimlaneBody=0;fillColor=none;collapsible=0;dropTarget=0;points=[[0,0.5],[1,0.5]];portConstraint=eastwest;top=0;left=0;right=0;bottom=0;html=1;" parent="DAVtMT2fN0Toa0u_V9ZZ-36" vertex="1">
          <mxGeometry y="120" width="180" height="30" as="geometry" />
        </mxCell>
        <mxCell id="DAVtMT2fN0Toa0u_V9ZZ-50" value="" style="shape=partialRectangle;connectable=0;fillColor=none;top=0;left=0;bottom=0;right=0;editable=1;overflow=hidden;html=1;whiteSpace=wrap;" parent="DAVtMT2fN0Toa0u_V9ZZ-49" vertex="1">
          <mxGeometry width="60" height="30" as="geometry">
            <mxRectangle width="60" height="30" as="alternateBounds" />
          </mxGeometry>
        </mxCell>
        <mxCell id="DAVtMT2fN0Toa0u_V9ZZ-51" value="titulo" style="shape=partialRectangle;connectable=0;fillColor=none;top=0;left=0;bottom=0;right=0;align=left;spacingLeft=6;overflow=hidden;html=1;whiteSpace=wrap;" parent="DAVtMT2fN0Toa0u_V9ZZ-49" vertex="1">
          <mxGeometry x="60" width="120" height="30" as="geometry">
            <mxRectangle width="120" height="30" as="alternateBounds" />
          </mxGeometry>
        </mxCell>
        <mxCell id="DAVtMT2fN0Toa0u_V9ZZ-56" value="" style="shape=tableRow;horizontal=0;startSize=0;swimlaneHead=0;swimlaneBody=0;fillColor=none;collapsible=0;dropTarget=0;points=[[0,0.5],[1,0.5]];portConstraint=eastwest;top=0;left=0;right=0;bottom=0;html=1;" parent="DAVtMT2fN0Toa0u_V9ZZ-36" vertex="1">
          <mxGeometry y="150" width="180" height="30" as="geometry" />
        </mxCell>
        <mxCell id="DAVtMT2fN0Toa0u_V9ZZ-57" value="" style="shape=partialRectangle;connectable=0;fillColor=none;top=0;left=0;bottom=0;right=0;editable=1;overflow=hidden;html=1;whiteSpace=wrap;" parent="DAVtMT2fN0Toa0u_V9ZZ-56" vertex="1">
          <mxGeometry width="60" height="30" as="geometry">
            <mxRectangle width="60" height="30" as="alternateBounds" />
          </mxGeometry>
        </mxCell>
        <mxCell id="DAVtMT2fN0Toa0u_V9ZZ-58" value="descricao" style="shape=partialRectangle;connectable=0;fillColor=none;top=0;left=0;bottom=0;right=0;align=left;spacingLeft=6;overflow=hidden;html=1;whiteSpace=wrap;" parent="DAVtMT2fN0Toa0u_V9ZZ-56" vertex="1">
          <mxGeometry x="60" width="120" height="30" as="geometry">
            <mxRectangle width="120" height="30" as="alternateBounds" />
          </mxGeometry>
        </mxCell>
        <mxCell id="5X_GrobAYqGZwycFECxE-1" value="" style="shape=tableRow;horizontal=0;startSize=0;swimlaneHead=0;swimlaneBody=0;fillColor=none;collapsible=0;dropTarget=0;points=[[0,0.5],[1,0.5]];portConstraint=eastwest;top=0;left=0;right=0;bottom=0;html=1;" vertex="1" parent="DAVtMT2fN0Toa0u_V9ZZ-36">
          <mxGeometry y="180" width="180" height="30" as="geometry" />
        </mxCell>
        <mxCell id="5X_GrobAYqGZwycFECxE-2" value="" style="shape=partialRectangle;connectable=0;fillColor=none;top=0;left=0;bottom=0;right=0;editable=1;overflow=hidden;html=1;whiteSpace=wrap;" vertex="1" parent="5X_GrobAYqGZwycFECxE-1">
          <mxGeometry width="60" height="30" as="geometry">
            <mxRectangle width="60" height="30" as="alternateBounds" />
          </mxGeometry>
        </mxCell>
        <mxCell id="5X_GrobAYqGZwycFECxE-3" value="presencial" style="shape=partialRectangle;connectable=0;fillColor=none;top=0;left=0;bottom=0;right=0;align=left;spacingLeft=6;overflow=hidden;html=1;whiteSpace=wrap;" vertex="1" parent="5X_GrobAYqGZwycFECxE-1">
          <mxGeometry x="60" width="120" height="30" as="geometry">
            <mxRectangle width="120" height="30" as="alternateBounds" />
          </mxGeometry>
        </mxCell>
        <mxCell id="DAVtMT2fN0Toa0u_V9ZZ-52" value="" style="edgeStyle=entityRelationEdgeStyle;fontSize=12;html=1;endArrow=ERoneToMany;rounded=0;" parent="1" source="kmYilYqnJgTo9celBA7s-2" target="DAVtMT2fN0Toa0u_V9ZZ-43" edge="1">
          <mxGeometry width="100" height="100" relative="1" as="geometry">
            <mxPoint x="-270" y="450" as="sourcePoint" />
            <mxPoint x="-170" y="350" as="targetPoint" />
          </mxGeometry>
        </mxCell>
        <mxCell id="DAVtMT2fN0Toa0u_V9ZZ-62" value="" style="edgeStyle=orthogonalEdgeStyle;fontSize=12;html=1;endArrow=ERoneToMany;rounded=0;" parent="1" source="kmYilYqnJgTo9celBA7s-82" target="bn7_tzNyp4nqcWYKTzEw-15" edge="1">
          <mxGeometry width="100" height="100" relative="1" as="geometry">
            <mxPoint x="210" y="70" as="sourcePoint" />
            <mxPoint x="310" y="-30" as="targetPoint" />
            <Array as="points">
              <mxPoint x="290" y="25" />
              <mxPoint x="290" y="-165" />
            </Array>
          </mxGeometry>
        </mxCell>
      </root>
    </mxGraphModel>
  </diagram>
</mxfile>
